<mxfile host="Electron" agent="Mozilla/5.0 (Windows NT 10.0; Win64; x64) AppleWebKit/537.36 (KHTML, like Gecko) draw.io/26.0.16 Chrome/132.0.6834.196 Electron/34.2.0 Safari/537.36" version="26.0.16">
  <diagram name="Page-1" id="ePpPu-dHSNhZjxOqLl06">
    <mxGraphModel dx="871" dy="1071" grid="1" gridSize="10" guides="1" tooltips="1" connect="1" arrows="1" fold="1" page="1" pageScale="1" pageWidth="827" pageHeight="1169" math="0" shadow="0">
      <root>
        <mxCell id="0" />
        <mxCell id="1" parent="0" />
        <mxCell id="IQKo63NXIHQgOwDerFXy-3" value="" style="edgeStyle=orthogonalEdgeStyle;rounded=0;orthogonalLoop=1;jettySize=auto;html=1;" parent="1" source="lomSyerv8LN0R2Z5AA1Y-29" target="IQKo63NXIHQgOwDerFXy-2" edge="1">
          <mxGeometry relative="1" as="geometry">
            <mxPoint x="218.7" y="167" as="sourcePoint" />
          </mxGeometry>
        </mxCell>
        <mxCell id="lomSyerv8LN0R2Z5AA1Y-31" value="" style="edgeStyle=orthogonalEdgeStyle;rounded=0;orthogonalLoop=1;jettySize=auto;html=1;" parent="1" source="IQKo63NXIHQgOwDerFXy-1" target="lomSyerv8LN0R2Z5AA1Y-29" edge="1">
          <mxGeometry relative="1" as="geometry" />
        </mxCell>
        <mxCell id="IQKo63NXIHQgOwDerFXy-1" value="C-8" style="shape=offPageConnector;whiteSpace=wrap;html=1;" parent="1" vertex="1">
          <mxGeometry x="178.7" y="17" width="80" height="80" as="geometry" />
        </mxCell>
        <mxCell id="IQKo63NXIHQgOwDerFXy-5" value="" style="edgeStyle=orthogonalEdgeStyle;rounded=0;orthogonalLoop=1;jettySize=auto;html=1;" parent="1" source="IQKo63NXIHQgOwDerFXy-2" target="IQKo63NXIHQgOwDerFXy-4" edge="1">
          <mxGeometry relative="1" as="geometry" />
        </mxCell>
        <mxCell id="IQKo63NXIHQgOwDerFXy-2" value="Display Inventory Record Menu" style="shape=parallelogram;perimeter=parallelogramPerimeter;whiteSpace=wrap;html=1;fixedSize=1;" parent="1" vertex="1">
          <mxGeometry x="118.7" y="197" width="200" height="40" as="geometry" />
        </mxCell>
        <mxCell id="IQKo63NXIHQgOwDerFXy-8" value="" style="edgeStyle=orthogonalEdgeStyle;rounded=0;orthogonalLoop=1;jettySize=auto;html=1;" parent="1" source="IQKo63NXIHQgOwDerFXy-4" target="IQKo63NXIHQgOwDerFXy-7" edge="1">
          <mxGeometry relative="1" as="geometry" />
        </mxCell>
        <mxCell id="IQKo63NXIHQgOwDerFXy-4" value="Input choice" style="shape=parallelogram;perimeter=parallelogramPerimeter;whiteSpace=wrap;html=1;fixedSize=1;" parent="1" vertex="1">
          <mxGeometry x="118.7" y="267" width="201.75" height="40" as="geometry" />
        </mxCell>
        <mxCell id="IQKo63NXIHQgOwDerFXy-10" value="" style="edgeStyle=orthogonalEdgeStyle;rounded=0;orthogonalLoop=1;jettySize=auto;html=1;" parent="1" source="IQKo63NXIHQgOwDerFXy-7" target="IQKo63NXIHQgOwDerFXy-9" edge="1">
          <mxGeometry relative="1" as="geometry" />
        </mxCell>
        <mxCell id="IQKo63NXIHQgOwDerFXy-26" value="" style="edgeStyle=orthogonalEdgeStyle;rounded=0;orthogonalLoop=1;jettySize=auto;html=1;entryX=0;entryY=0.5;entryDx=0;entryDy=0;" parent="1" source="IQKo63NXIHQgOwDerFXy-7" target="IQKo63NXIHQgOwDerFXy-27" edge="1">
          <mxGeometry relative="1" as="geometry">
            <mxPoint x="346.39500000000004" y="391.9999999999999" as="targetPoint" />
          </mxGeometry>
        </mxCell>
        <mxCell id="IQKo63NXIHQgOwDerFXy-7" value="choice == 1" style="rhombus;whiteSpace=wrap;html=1;" parent="1" vertex="1">
          <mxGeometry x="169.86" y="347" width="97.69" height="90" as="geometry" />
        </mxCell>
        <mxCell id="IQKo63NXIHQgOwDerFXy-12" value="" style="edgeStyle=orthogonalEdgeStyle;rounded=0;orthogonalLoop=1;jettySize=auto;html=1;" parent="1" source="IQKo63NXIHQgOwDerFXy-9" target="IQKo63NXIHQgOwDerFXy-11" edge="1">
          <mxGeometry relative="1" as="geometry" />
        </mxCell>
        <mxCell id="IQKo63NXIHQgOwDerFXy-29" value="" style="edgeStyle=orthogonalEdgeStyle;rounded=0;orthogonalLoop=1;jettySize=auto;html=1;" parent="1" source="IQKo63NXIHQgOwDerFXy-9" target="IQKo63NXIHQgOwDerFXy-28" edge="1">
          <mxGeometry relative="1" as="geometry" />
        </mxCell>
        <mxCell id="IQKo63NXIHQgOwDerFXy-9" value="choice == 2" style="rhombus;whiteSpace=wrap;html=1;" parent="1" vertex="1">
          <mxGeometry x="170.7" y="467" width="96" height="90" as="geometry" />
        </mxCell>
        <mxCell id="IQKo63NXIHQgOwDerFXy-14" value="" style="edgeStyle=orthogonalEdgeStyle;rounded=0;orthogonalLoop=1;jettySize=auto;html=1;" parent="1" source="IQKo63NXIHQgOwDerFXy-11" target="IQKo63NXIHQgOwDerFXy-13" edge="1">
          <mxGeometry relative="1" as="geometry" />
        </mxCell>
        <mxCell id="IQKo63NXIHQgOwDerFXy-31" value="" style="edgeStyle=orthogonalEdgeStyle;rounded=0;orthogonalLoop=1;jettySize=auto;html=1;" parent="1" source="IQKo63NXIHQgOwDerFXy-11" target="IQKo63NXIHQgOwDerFXy-30" edge="1">
          <mxGeometry relative="1" as="geometry" />
        </mxCell>
        <mxCell id="IQKo63NXIHQgOwDerFXy-11" value="choice == 3" style="rhombus;whiteSpace=wrap;html=1;" parent="1" vertex="1">
          <mxGeometry x="175.73000000000002" y="597" width="87.69" height="90" as="geometry" />
        </mxCell>
        <mxCell id="IQKo63NXIHQgOwDerFXy-16" value="" style="edgeStyle=orthogonalEdgeStyle;rounded=0;orthogonalLoop=1;jettySize=auto;html=1;" parent="1" source="IQKo63NXIHQgOwDerFXy-13" target="IQKo63NXIHQgOwDerFXy-15" edge="1">
          <mxGeometry relative="1" as="geometry" />
        </mxCell>
        <mxCell id="IQKo63NXIHQgOwDerFXy-33" value="" style="edgeStyle=orthogonalEdgeStyle;rounded=0;orthogonalLoop=1;jettySize=auto;html=1;" parent="1" source="IQKo63NXIHQgOwDerFXy-13" target="IQKo63NXIHQgOwDerFXy-32" edge="1">
          <mxGeometry relative="1" as="geometry" />
        </mxCell>
        <mxCell id="IQKo63NXIHQgOwDerFXy-13" value="choice == 4" style="rhombus;whiteSpace=wrap;html=1;" parent="1" vertex="1">
          <mxGeometry x="174.85999999999996" y="737" width="87.69" height="90" as="geometry" />
        </mxCell>
        <mxCell id="IQKo63NXIHQgOwDerFXy-18" value="" style="edgeStyle=orthogonalEdgeStyle;rounded=0;orthogonalLoop=1;jettySize=auto;html=1;" parent="1" source="IQKo63NXIHQgOwDerFXy-15" target="IQKo63NXIHQgOwDerFXy-17" edge="1">
          <mxGeometry relative="1" as="geometry" />
        </mxCell>
        <mxCell id="lomSyerv8LN0R2Z5AA1Y-24" value="" style="edgeStyle=orthogonalEdgeStyle;rounded=0;orthogonalLoop=1;jettySize=auto;html=1;" parent="1" source="IQKo63NXIHQgOwDerFXy-15" target="lomSyerv8LN0R2Z5AA1Y-23" edge="1">
          <mxGeometry relative="1" as="geometry" />
        </mxCell>
        <mxCell id="IQKo63NXIHQgOwDerFXy-15" value="choice == 5" style="rhombus;whiteSpace=wrap;html=1;" parent="1" vertex="1">
          <mxGeometry x="175.72999999999996" y="867" width="87.69" height="90" as="geometry" />
        </mxCell>
        <mxCell id="IQKo63NXIHQgOwDerFXy-36" value="" style="edgeStyle=orthogonalEdgeStyle;rounded=0;orthogonalLoop=1;jettySize=auto;html=1;" parent="1" source="IQKo63NXIHQgOwDerFXy-17" target="IQKo63NXIHQgOwDerFXy-35" edge="1">
          <mxGeometry relative="1" as="geometry" />
        </mxCell>
        <mxCell id="Z7cSm4-CHYU7oi6Hj0iT-25" value="" style="edgeStyle=orthogonalEdgeStyle;rounded=0;orthogonalLoop=1;jettySize=auto;html=1;" parent="1" source="IQKo63NXIHQgOwDerFXy-17" target="Z7cSm4-CHYU7oi6Hj0iT-22" edge="1">
          <mxGeometry relative="1" as="geometry" />
        </mxCell>
        <mxCell id="IQKo63NXIHQgOwDerFXy-17" value="choice == 6" style="rhombus;whiteSpace=wrap;html=1;" parent="1" vertex="1">
          <mxGeometry x="175.72999999999996" y="997" width="87.69" height="90" as="geometry" />
        </mxCell>
        <mxCell id="IQKo63NXIHQgOwDerFXy-24" value="Return" style="ellipse;whiteSpace=wrap;html=1;" parent="1" vertex="1">
          <mxGeometry x="532.87" y="889.5" width="117.99" height="45" as="geometry" />
        </mxCell>
        <mxCell id="Z7cSm4-CHYU7oi6Hj0iT-3" value="" style="edgeStyle=orthogonalEdgeStyle;rounded=0;orthogonalLoop=1;jettySize=auto;html=1;" parent="1" source="IQKo63NXIHQgOwDerFXy-27" target="Z7cSm4-CHYU7oi6Hj0iT-1" edge="1">
          <mxGeometry relative="1" as="geometry" />
        </mxCell>
        <mxCell id="IQKo63NXIHQgOwDerFXy-27" value="add_record()" style="shape=process;whiteSpace=wrap;html=1;backgroundOutline=1;" parent="1" vertex="1">
          <mxGeometry x="344.7" y="374.5" width="120" height="35" as="geometry" />
        </mxCell>
        <mxCell id="Z7cSm4-CHYU7oi6Hj0iT-7" value="" style="edgeStyle=orthogonalEdgeStyle;rounded=0;orthogonalLoop=1;jettySize=auto;html=1;" parent="1" source="IQKo63NXIHQgOwDerFXy-28" target="Z7cSm4-CHYU7oi6Hj0iT-2" edge="1">
          <mxGeometry relative="1" as="geometry" />
        </mxCell>
        <mxCell id="IQKo63NXIHQgOwDerFXy-28" value="update_stock()" style="shape=process;whiteSpace=wrap;html=1;backgroundOutline=1;" parent="1" vertex="1">
          <mxGeometry x="344.7" y="494.5" width="120" height="35" as="geometry" />
        </mxCell>
        <mxCell id="Z7cSm4-CHYU7oi6Hj0iT-5" value="" style="edgeStyle=orthogonalEdgeStyle;rounded=0;orthogonalLoop=1;jettySize=auto;html=1;" parent="1" source="IQKo63NXIHQgOwDerFXy-30" target="Z7cSm4-CHYU7oi6Hj0iT-4" edge="1">
          <mxGeometry relative="1" as="geometry" />
        </mxCell>
        <mxCell id="IQKo63NXIHQgOwDerFXy-30" value="remove_&lt;br&gt;discontinued()" style="shape=process;whiteSpace=wrap;html=1;backgroundOutline=1;" parent="1" vertex="1">
          <mxGeometry x="344.7" y="622" width="120" height="40" as="geometry" />
        </mxCell>
        <mxCell id="Z7cSm4-CHYU7oi6Hj0iT-9" value="" style="edgeStyle=orthogonalEdgeStyle;rounded=0;orthogonalLoop=1;jettySize=auto;html=1;" parent="1" source="IQKo63NXIHQgOwDerFXy-32" target="Z7cSm4-CHYU7oi6Hj0iT-8" edge="1">
          <mxGeometry relative="1" as="geometry" />
        </mxCell>
        <mxCell id="IQKo63NXIHQgOwDerFXy-32" value="view_record()" style="shape=process;whiteSpace=wrap;html=1;backgroundOutline=1;" parent="1" vertex="1">
          <mxGeometry x="344.7" y="763.87" width="120" height="36.25" as="geometry" />
        </mxCell>
        <mxCell id="IQKo63NXIHQgOwDerFXy-35" value="Display Error" style="shape=parallelogram;perimeter=parallelogramPerimeter;whiteSpace=wrap;html=1;fixedSize=1;" parent="1" vertex="1">
          <mxGeometry x="334.7" y="1019.5" width="140" height="45" as="geometry" />
        </mxCell>
        <mxCell id="IQKo63NXIHQgOwDerFXy-43" value="" style="endArrow=none;html=1;rounded=0;exitX=1;exitY=0.5;exitDx=0;exitDy=0;" parent="1" source="IQKo63NXIHQgOwDerFXy-35" edge="1">
          <mxGeometry width="50" height="50" relative="1" as="geometry">
            <mxPoint x="444.7" y="997" as="sourcePoint" />
            <mxPoint x="728.7" y="1042" as="targetPoint" />
          </mxGeometry>
        </mxCell>
        <mxCell id="Z7cSm4-CHYU7oi6Hj0iT-1" value="C-9" style="shape=offPageConnector;whiteSpace=wrap;html=1;" parent="1" vertex="1">
          <mxGeometry x="543.7" y="352" width="80" height="80" as="geometry" />
        </mxCell>
        <mxCell id="Z7cSm4-CHYU7oi6Hj0iT-2" value="C-11" style="shape=offPageConnector;whiteSpace=wrap;html=1;" parent="1" vertex="1">
          <mxGeometry x="544.7" y="472" width="80" height="80" as="geometry" />
        </mxCell>
        <mxCell id="Z7cSm4-CHYU7oi6Hj0iT-4" value="C-13" style="shape=offPageConnector;whiteSpace=wrap;html=1;" parent="1" vertex="1">
          <mxGeometry x="543.7" y="602" width="80" height="80" as="geometry" />
        </mxCell>
        <mxCell id="Z7cSm4-CHYU7oi6Hj0iT-8" value="C-12" style="shape=offPageConnector;whiteSpace=wrap;html=1;" parent="1" vertex="1">
          <mxGeometry x="543.7" y="741.99" width="80" height="80" as="geometry" />
        </mxCell>
        <mxCell id="Z7cSm4-CHYU7oi6Hj0iT-11" value="" style="endArrow=classic;html=1;rounded=0;exitX=1;exitY=0.5;exitDx=0;exitDy=0;" parent="1" source="Z7cSm4-CHYU7oi6Hj0iT-1" edge="1">
          <mxGeometry width="50" height="50" relative="1" as="geometry">
            <mxPoint x="543.7" y="457" as="sourcePoint" />
            <mxPoint x="218.7" y="174.5" as="targetPoint" />
            <Array as="points">
              <mxPoint x="727.7" y="392" />
              <mxPoint x="727.7" y="177" />
            </Array>
          </mxGeometry>
        </mxCell>
        <mxCell id="Z7cSm4-CHYU7oi6Hj0iT-12" value="" style="endArrow=none;html=1;rounded=0;exitX=0.996;exitY=0.439;exitDx=0;exitDy=0;exitPerimeter=0;" parent="1" source="Z7cSm4-CHYU7oi6Hj0iT-2" edge="1">
          <mxGeometry width="50" height="50" relative="1" as="geometry">
            <mxPoint x="623.7" y="547" as="sourcePoint" />
            <mxPoint x="728.7" y="507" as="targetPoint" />
          </mxGeometry>
        </mxCell>
        <mxCell id="Z7cSm4-CHYU7oi6Hj0iT-13" value="" style="endArrow=none;html=1;rounded=0;exitX=1.012;exitY=0.433;exitDx=0;exitDy=0;exitPerimeter=0;" parent="1" source="Z7cSm4-CHYU7oi6Hj0iT-4" edge="1">
          <mxGeometry width="50" height="50" relative="1" as="geometry">
            <mxPoint x="673.7" y="737" as="sourcePoint" />
            <mxPoint x="727.7" y="637" as="targetPoint" />
          </mxGeometry>
        </mxCell>
        <mxCell id="Z7cSm4-CHYU7oi6Hj0iT-14" value="" style="endArrow=none;html=1;rounded=0;exitX=1;exitY=0.374;exitDx=0;exitDy=0;exitPerimeter=0;" parent="1" source="Z7cSm4-CHYU7oi6Hj0iT-8" edge="1">
          <mxGeometry width="50" height="50" relative="1" as="geometry">
            <mxPoint x="673.7" y="837" as="sourcePoint" />
            <mxPoint x="727.7" y="772" as="targetPoint" />
          </mxGeometry>
        </mxCell>
        <mxCell id="Z7cSm4-CHYU7oi6Hj0iT-15" value="Yes" style="text;html=1;align=center;verticalAlign=middle;whiteSpace=wrap;rounded=0;" parent="1" vertex="1">
          <mxGeometry x="266.7" y="368" width="60" height="30" as="geometry" />
        </mxCell>
        <mxCell id="Z7cSm4-CHYU7oi6Hj0iT-16" value="Yes" style="text;html=1;align=center;verticalAlign=middle;whiteSpace=wrap;rounded=0;" parent="1" vertex="1">
          <mxGeometry x="267.55" y="488" width="60" height="30" as="geometry" />
        </mxCell>
        <mxCell id="Z7cSm4-CHYU7oi6Hj0iT-17" value="Yes" style="text;html=1;align=center;verticalAlign=middle;whiteSpace=wrap;rounded=0;" parent="1" vertex="1">
          <mxGeometry x="267.55" y="618" width="60" height="30" as="geometry" />
        </mxCell>
        <mxCell id="Z7cSm4-CHYU7oi6Hj0iT-18" value="Yes" style="text;html=1;align=center;verticalAlign=middle;whiteSpace=wrap;rounded=0;" parent="1" vertex="1">
          <mxGeometry x="267.55" y="758" width="60" height="30" as="geometry" />
        </mxCell>
        <mxCell id="Z7cSm4-CHYU7oi6Hj0iT-19" value="Yes" style="text;html=1;align=center;verticalAlign=middle;whiteSpace=wrap;rounded=0;" parent="1" vertex="1">
          <mxGeometry x="258.7" y="887" width="60" height="30" as="geometry" />
        </mxCell>
        <mxCell id="Z7cSm4-CHYU7oi6Hj0iT-20" value="No" style="text;html=1;align=center;verticalAlign=middle;whiteSpace=wrap;rounded=0;" parent="1" vertex="1">
          <mxGeometry x="274.58" y="1008" width="60" height="30" as="geometry" />
        </mxCell>
        <mxCell id="Z7cSm4-CHYU7oi6Hj0iT-21" value="No" style="text;html=1;align=center;verticalAlign=middle;whiteSpace=wrap;rounded=0;" parent="1" vertex="1">
          <mxGeometry x="214.57999999999998" y="957" width="60" height="30" as="geometry" />
        </mxCell>
        <mxCell id="Z7cSm4-CHYU7oi6Hj0iT-22" value="Thank you for &lt;br&gt;using System Thank You" style="shape=parallelogram;perimeter=parallelogramPerimeter;whiteSpace=wrap;html=1;fixedSize=1;" parent="1" vertex="1">
          <mxGeometry x="118.7" y="1107" width="200" height="45" as="geometry" />
        </mxCell>
        <mxCell id="Z7cSm4-CHYU7oi6Hj0iT-27" value="Yes" style="text;html=1;align=center;verticalAlign=middle;whiteSpace=wrap;rounded=0;" parent="1" vertex="1">
          <mxGeometry x="213.7" y="1077" width="60" height="30" as="geometry" />
        </mxCell>
        <mxCell id="Z7cSm4-CHYU7oi6Hj0iT-28" value="No" style="text;html=1;align=center;verticalAlign=middle;whiteSpace=wrap;rounded=0;" parent="1" vertex="1">
          <mxGeometry x="214.57999999999998" y="827" width="60" height="30" as="geometry" />
        </mxCell>
        <mxCell id="Z7cSm4-CHYU7oi6Hj0iT-29" value="No" style="text;html=1;align=center;verticalAlign=middle;whiteSpace=wrap;rounded=0;" parent="1" vertex="1">
          <mxGeometry x="214.57999999999998" y="687" width="60" height="30" as="geometry" />
        </mxCell>
        <mxCell id="Z7cSm4-CHYU7oi6Hj0iT-30" value="No" style="text;html=1;align=center;verticalAlign=middle;whiteSpace=wrap;rounded=0;" parent="1" vertex="1">
          <mxGeometry x="214.57999999999998" y="557" width="60" height="30" as="geometry" />
        </mxCell>
        <mxCell id="Z7cSm4-CHYU7oi6Hj0iT-31" value="No" style="text;html=1;align=center;verticalAlign=middle;whiteSpace=wrap;rounded=0;" parent="1" vertex="1">
          <mxGeometry x="207.54999999999998" y="432" width="60" height="30" as="geometry" />
        </mxCell>
        <mxCell id="lomSyerv8LN0R2Z5AA1Y-2" value="" style="edgeStyle=orthogonalEdgeStyle;rounded=0;orthogonalLoop=1;jettySize=auto;html=1;" parent="1" source="nBvJbw0jXfMjI-mwf7v2-1" target="lomSyerv8LN0R2Z5AA1Y-1" edge="1">
          <mxGeometry relative="1" as="geometry" />
        </mxCell>
        <mxCell id="nBvJbw0jXfMjI-mwf7v2-1" value="C-9" style="shape=offPageConnector;whiteSpace=wrap;html=1;" parent="1" vertex="1">
          <mxGeometry x="221.88000000000002" y="1200" width="80" height="80" as="geometry" />
        </mxCell>
        <mxCell id="nBvJbw0jXfMjI-mwf7v2-5" value="" style="edgeStyle=orthogonalEdgeStyle;rounded=0;orthogonalLoop=1;jettySize=auto;html=1;" parent="1" source="nBvJbw0jXfMjI-mwf7v2-2" target="nBvJbw0jXfMjI-mwf7v2-4" edge="1">
          <mxGeometry relative="1" as="geometry" />
        </mxCell>
        <mxCell id="nBvJbw0jXfMjI-mwf7v2-2" value="product_data = retrieve data from product txt" style="rounded=0;whiteSpace=wrap;html=1;" parent="1" vertex="1">
          <mxGeometry x="197.41" y="1370" width="130" height="60" as="geometry" />
        </mxCell>
        <mxCell id="nBvJbw0jXfMjI-mwf7v2-7" value="" style="edgeStyle=orthogonalEdgeStyle;rounded=0;orthogonalLoop=1;jettySize=auto;html=1;" parent="1" source="nBvJbw0jXfMjI-mwf7v2-4" target="nBvJbw0jXfMjI-mwf7v2-6" edge="1">
          <mxGeometry relative="1" as="geometry" />
        </mxCell>
        <mxCell id="nBvJbw0jXfMjI-mwf7v2-4" value="display input date &lt;br&gt;input prromt" style="shape=parallelogram;perimeter=parallelogramPerimeter;whiteSpace=wrap;html=1;fixedSize=1;" parent="1" vertex="1">
          <mxGeometry x="180.35" y="1460" width="164.12" height="50" as="geometry" />
        </mxCell>
        <mxCell id="nBvJbw0jXfMjI-mwf7v2-9" value="" style="edgeStyle=orthogonalEdgeStyle;rounded=0;orthogonalLoop=1;jettySize=auto;html=1;" parent="1" source="nBvJbw0jXfMjI-mwf7v2-6" target="nBvJbw0jXfMjI-mwf7v2-8" edge="1">
          <mxGeometry relative="1" as="geometry" />
        </mxCell>
        <mxCell id="nBvJbw0jXfMjI-mwf7v2-6" value="input date" style="shape=parallelogram;perimeter=parallelogramPerimeter;whiteSpace=wrap;html=1;fixedSize=1;" parent="1" vertex="1">
          <mxGeometry x="180.35" y="1540" width="164.12" height="50" as="geometry" />
        </mxCell>
        <mxCell id="nBvJbw0jXfMjI-mwf7v2-11" value="" style="edgeStyle=orthogonalEdgeStyle;rounded=0;orthogonalLoop=1;jettySize=auto;html=1;" parent="1" source="nBvJbw0jXfMjI-mwf7v2-8" target="nBvJbw0jXfMjI-mwf7v2-10" edge="1">
          <mxGeometry relative="1" as="geometry" />
        </mxCell>
        <mxCell id="nBvJbw0jXfMjI-mwf7v2-15" value="" style="edgeStyle=orthogonalEdgeStyle;rounded=0;orthogonalLoop=1;jettySize=auto;html=1;" parent="1" source="nBvJbw0jXfMjI-mwf7v2-8" target="nBvJbw0jXfMjI-mwf7v2-14" edge="1">
          <mxGeometry relative="1" as="geometry" />
        </mxCell>
        <mxCell id="nBvJbw0jXfMjI-mwf7v2-8" value="is the date valid ?" style="rhombus;whiteSpace=wrap;html=1;" parent="1" vertex="1">
          <mxGeometry x="191.91" y="1620" width="141" height="105" as="geometry" />
        </mxCell>
        <mxCell id="nBvJbw0jXfMjI-mwf7v2-10" value="Display Error" style="shape=parallelogram;perimeter=parallelogramPerimeter;whiteSpace=wrap;html=1;fixedSize=1;" parent="1" vertex="1">
          <mxGeometry x="397.56" y="1642.5" width="189" height="60" as="geometry" />
        </mxCell>
        <mxCell id="nBvJbw0jXfMjI-mwf7v2-18" value="" style="edgeStyle=orthogonalEdgeStyle;rounded=0;orthogonalLoop=1;jettySize=auto;html=1;" parent="1" source="nBvJbw0jXfMjI-mwf7v2-14" target="nBvJbw0jXfMjI-mwf7v2-17" edge="1">
          <mxGeometry relative="1" as="geometry" />
        </mxCell>
        <mxCell id="nBvJbw0jXfMjI-mwf7v2-14" value="diplay input product id promt" style="shape=parallelogram;perimeter=parallelogramPerimeter;whiteSpace=wrap;html=1;fixedSize=1;" parent="1" vertex="1">
          <mxGeometry x="162.41" y="1760" width="200" height="60" as="geometry" />
        </mxCell>
        <mxCell id="nBvJbw0jXfMjI-mwf7v2-20" value="" style="edgeStyle=orthogonalEdgeStyle;rounded=0;orthogonalLoop=1;jettySize=auto;html=1;" parent="1" source="nBvJbw0jXfMjI-mwf7v2-17" target="nBvJbw0jXfMjI-mwf7v2-19" edge="1">
          <mxGeometry relative="1" as="geometry" />
        </mxCell>
        <mxCell id="nBvJbw0jXfMjI-mwf7v2-17" value="input product_id" style="shape=parallelogram;perimeter=parallelogramPerimeter;whiteSpace=wrap;html=1;fixedSize=1;" parent="1" vertex="1">
          <mxGeometry x="167.41" y="1850" width="190" height="60" as="geometry" />
        </mxCell>
        <mxCell id="nBvJbw0jXfMjI-mwf7v2-22" value="" style="edgeStyle=orthogonalEdgeStyle;rounded=0;orthogonalLoop=1;jettySize=auto;html=1;" parent="1" source="nBvJbw0jXfMjI-mwf7v2-19" target="nBvJbw0jXfMjI-mwf7v2-21" edge="1">
          <mxGeometry relative="1" as="geometry" />
        </mxCell>
        <mxCell id="nBvJbw0jXfMjI-mwf7v2-24" value="" style="edgeStyle=orthogonalEdgeStyle;rounded=0;orthogonalLoop=1;jettySize=auto;html=1;" parent="1" source="nBvJbw0jXfMjI-mwf7v2-19" target="nBvJbw0jXfMjI-mwf7v2-23" edge="1">
          <mxGeometry relative="1" as="geometry" />
        </mxCell>
        <mxCell id="nBvJbw0jXfMjI-mwf7v2-19" value="is the product &lt;br&gt;|d valid ?" style="rhombus;whiteSpace=wrap;html=1;" parent="1" vertex="1">
          <mxGeometry x="192.91" y="1940" width="139" height="110" as="geometry" />
        </mxCell>
        <mxCell id="nBvJbw0jXfMjI-mwf7v2-26" value="" style="edgeStyle=orthogonalEdgeStyle;rounded=0;orthogonalLoop=1;jettySize=auto;html=1;" parent="1" source="nBvJbw0jXfMjI-mwf7v2-21" target="nBvJbw0jXfMjI-mwf7v2-25" edge="1">
          <mxGeometry relative="1" as="geometry" />
        </mxCell>
        <mxCell id="nBvJbw0jXfMjI-mwf7v2-29" value="" style="edgeStyle=orthogonalEdgeStyle;rounded=0;orthogonalLoop=1;jettySize=auto;html=1;entryX=0.5;entryY=0;entryDx=0;entryDy=0;" parent="1" source="nBvJbw0jXfMjI-mwf7v2-21" target="nBvJbw0jXfMjI-mwf7v2-51" edge="1">
          <mxGeometry relative="1" as="geometry">
            <mxPoint x="262.41500000000013" y="2240.0000000000005" as="targetPoint" />
          </mxGeometry>
        </mxCell>
        <mxCell id="nBvJbw0jXfMjI-mwf7v2-21" value="product_id is &lt;br&gt;registered?" style="rhombus;whiteSpace=wrap;html=1;" parent="1" vertex="1">
          <mxGeometry x="192.91" y="2090" width="139" height="110" as="geometry" />
        </mxCell>
        <mxCell id="nBvJbw0jXfMjI-mwf7v2-23" value="Display Error" style="shape=parallelogram;perimeter=parallelogramPerimeter;whiteSpace=wrap;html=1;fixedSize=1;" parent="1" vertex="1">
          <mxGeometry x="397.56" y="1965" width="171" height="60" as="geometry" />
        </mxCell>
        <mxCell id="nBvJbw0jXfMjI-mwf7v2-25" value="Display Error" style="shape=parallelogram;perimeter=parallelogramPerimeter;whiteSpace=wrap;html=1;fixedSize=1;" parent="1" vertex="1">
          <mxGeometry x="388.56000000000006" y="2115" width="180" height="60" as="geometry" />
        </mxCell>
        <mxCell id="nBvJbw0jXfMjI-mwf7v2-41" value="" style="edgeStyle=orthogonalEdgeStyle;rounded=0;orthogonalLoop=1;jettySize=auto;html=1;" parent="1" target="nBvJbw0jXfMjI-mwf7v2-49" edge="1">
          <mxGeometry relative="1" as="geometry">
            <mxPoint x="284.6650000000001" y="2466" as="sourcePoint" />
          </mxGeometry>
        </mxCell>
        <mxCell id="nBvJbw0jXfMjI-mwf7v2-43" value="" style="edgeStyle=orthogonalEdgeStyle;rounded=0;orthogonalLoop=1;jettySize=auto;html=1;" parent="1" source="nBvJbw0jXfMjI-mwf7v2-44" target="nBvJbw0jXfMjI-mwf7v2-46" edge="1">
          <mxGeometry relative="1" as="geometry" />
        </mxCell>
        <mxCell id="nBvJbw0jXfMjI-mwf7v2-44" value="display input quantity prompt" style="shape=parallelogram;perimeter=parallelogramPerimeter;whiteSpace=wrap;html=1;fixedSize=1;" parent="1" vertex="1">
          <mxGeometry x="210.62" y="2799" width="148.08" height="37" as="geometry" />
        </mxCell>
        <mxCell id="nBvJbw0jXfMjI-mwf7v2-45" value="" style="edgeStyle=orthogonalEdgeStyle;rounded=0;orthogonalLoop=1;jettySize=auto;html=1;" parent="1" source="nBvJbw0jXfMjI-mwf7v2-46" target="nBvJbw0jXfMjI-mwf7v2-47" edge="1">
          <mxGeometry relative="1" as="geometry" />
        </mxCell>
        <mxCell id="nBvJbw0jXfMjI-mwf7v2-46" value="input quantity" style="shape=parallelogram;perimeter=parallelogramPerimeter;whiteSpace=wrap;html=1;fixedSize=1;" parent="1" vertex="1">
          <mxGeometry x="205.83" y="2879" width="158.08" height="37" as="geometry" />
        </mxCell>
        <mxCell id="nBvJbw0jXfMjI-mwf7v2-65" value="" style="edgeStyle=orthogonalEdgeStyle;rounded=0;orthogonalLoop=1;jettySize=auto;html=1;entryX=0.5;entryY=0;entryDx=0;entryDy=0;" parent="1" source="nBvJbw0jXfMjI-mwf7v2-47" target="1OD_2GAFe2Vb38w-pji7-191" edge="1">
          <mxGeometry relative="1" as="geometry">
            <mxPoint x="284.84000000000003" y="3056" as="targetPoint" />
          </mxGeometry>
        </mxCell>
        <mxCell id="nBvJbw0jXfMjI-mwf7v2-73" value="" style="edgeStyle=orthogonalEdgeStyle;rounded=0;orthogonalLoop=1;jettySize=auto;html=1;" parent="1" source="nBvJbw0jXfMjI-mwf7v2-47" target="nBvJbw0jXfMjI-mwf7v2-72" edge="1">
          <mxGeometry relative="1" as="geometry" />
        </mxCell>
        <mxCell id="nBvJbw0jXfMjI-mwf7v2-47" value="quantity is integer ?" style="rhombus;whiteSpace=wrap;html=1;" parent="1" vertex="1">
          <mxGeometry x="238.52" y="2946" width="92.69" height="90" as="geometry" />
        </mxCell>
        <mxCell id="nBvJbw0jXfMjI-mwf7v2-48" value="" style="edgeStyle=orthogonalEdgeStyle;rounded=0;orthogonalLoop=1;jettySize=auto;html=1;" parent="1" source="nBvJbw0jXfMjI-mwf7v2-49" target="nBvJbw0jXfMjI-mwf7v2-50" edge="1">
          <mxGeometry relative="1" as="geometry" />
        </mxCell>
        <mxCell id="nBvJbw0jXfMjI-mwf7v2-49" value="display input action prompt" style="shape=parallelogram;perimeter=parallelogramPerimeter;whiteSpace=wrap;html=1;fixedSize=1;" parent="1" vertex="1">
          <mxGeometry x="196.21000000000006" y="2496" width="176.92" height="40" as="geometry" />
        </mxCell>
        <mxCell id="nBvJbw0jXfMjI-mwf7v2-54" value="" style="edgeStyle=orthogonalEdgeStyle;rounded=0;orthogonalLoop=1;jettySize=auto;html=1;" parent="1" source="nBvJbw0jXfMjI-mwf7v2-50" target="nBvJbw0jXfMjI-mwf7v2-53" edge="1">
          <mxGeometry relative="1" as="geometry" />
        </mxCell>
        <mxCell id="nBvJbw0jXfMjI-mwf7v2-50" value="Input action" style="shape=parallelogram;perimeter=parallelogramPerimeter;whiteSpace=wrap;html=1;fixedSize=1;" parent="1" vertex="1">
          <mxGeometry x="224.6600000000001" y="2566" width="120" height="40" as="geometry" />
        </mxCell>
        <mxCell id="nBvJbw0jXfMjI-mwf7v2-51" value="C-10" style="shape=offPageConnector;whiteSpace=wrap;html=1;" parent="1" vertex="1">
          <mxGeometry x="222.41000000000003" y="2236" width="80" height="80" as="geometry" />
        </mxCell>
        <mxCell id="nBvJbw0jXfMjI-mwf7v2-52" value="C-10" style="shape=offPageConnector;whiteSpace=wrap;html=1;" parent="1" vertex="1">
          <mxGeometry x="244.66" y="2386" width="80" height="80" as="geometry" />
        </mxCell>
        <mxCell id="nBvJbw0jXfMjI-mwf7v2-55" value="" style="edgeStyle=orthogonalEdgeStyle;rounded=0;orthogonalLoop=1;jettySize=auto;html=1;" parent="1" source="nBvJbw0jXfMjI-mwf7v2-53" target="nBvJbw0jXfMjI-mwf7v2-44" edge="1">
          <mxGeometry relative="1" as="geometry" />
        </mxCell>
        <mxCell id="nBvJbw0jXfMjI-mwf7v2-75" value="" style="edgeStyle=orthogonalEdgeStyle;rounded=0;orthogonalLoop=1;jettySize=auto;html=1;" parent="1" source="nBvJbw0jXfMjI-mwf7v2-53" target="nBvJbw0jXfMjI-mwf7v2-74" edge="1">
          <mxGeometry relative="1" as="geometry" />
        </mxCell>
        <mxCell id="nBvJbw0jXfMjI-mwf7v2-53" value="is the action&lt;br&gt;restock or out or&lt;br&gt;return ?" style="rhombus;whiteSpace=wrap;html=1;" parent="1" vertex="1">
          <mxGeometry x="231.96000000000006" y="2636" width="105.4" height="100" as="geometry" />
        </mxCell>
        <mxCell id="nBvJbw0jXfMjI-mwf7v2-59" value="" style="edgeStyle=orthogonalEdgeStyle;rounded=0;orthogonalLoop=1;jettySize=auto;html=1;" parent="1" source="nBvJbw0jXfMjI-mwf7v2-56" target="nBvJbw0jXfMjI-mwf7v2-58" edge="1">
          <mxGeometry relative="1" as="geometry" />
        </mxCell>
        <mxCell id="nBvJbw0jXfMjI-mwf7v2-56" value="display record loop promt" style="shape=parallelogram;perimeter=parallelogramPerimeter;whiteSpace=wrap;html=1;fixedSize=1;" parent="1" vertex="1">
          <mxGeometry x="195" y="3159" width="170" height="40" as="geometry" />
        </mxCell>
        <mxCell id="nBvJbw0jXfMjI-mwf7v2-63" value="" style="edgeStyle=orthogonalEdgeStyle;rounded=0;orthogonalLoop=1;jettySize=auto;html=1;" parent="1" source="nBvJbw0jXfMjI-mwf7v2-58" target="nBvJbw0jXfMjI-mwf7v2-62" edge="1">
          <mxGeometry relative="1" as="geometry" />
        </mxCell>
        <mxCell id="nBvJbw0jXfMjI-mwf7v2-58" value="input record_loop" style="shape=parallelogram;perimeter=parallelogramPerimeter;whiteSpace=wrap;html=1;fixedSize=1;" parent="1" vertex="1">
          <mxGeometry x="220.00000000000003" y="3219" width="120" height="60" as="geometry" />
        </mxCell>
        <mxCell id="nBvJbw0jXfMjI-mwf7v2-70" value="" style="edgeStyle=orthogonalEdgeStyle;rounded=0;orthogonalLoop=1;jettySize=auto;html=1;entryX=0.5;entryY=0;entryDx=0;entryDy=0;" parent="1" source="nBvJbw0jXfMjI-mwf7v2-62" target="nBvJbw0jXfMjI-mwf7v2-69" edge="1">
          <mxGeometry relative="1" as="geometry">
            <mxPoint x="282.8500000000001" y="3419" as="targetPoint" />
          </mxGeometry>
        </mxCell>
        <mxCell id="nBvJbw0jXfMjI-mwf7v2-62" value="&amp;nbsp;record_loop&lt;br&gt;&amp;nbsp;== &#39;y&#39; or &#39;Y&#39;" style="rhombus;whiteSpace=wrap;html=1;" parent="1" vertex="1">
          <mxGeometry x="228.65000000000003" y="3299" width="102.7" height="100" as="geometry" />
        </mxCell>
        <mxCell id="nBvJbw0jXfMjI-mwf7v2-69" value="Return" style="ellipse;whiteSpace=wrap;html=1;" parent="1" vertex="1">
          <mxGeometry x="225.00000000000003" y="3419" width="110" height="40" as="geometry" />
        </mxCell>
        <mxCell id="nBvJbw0jXfMjI-mwf7v2-71" value="no" style="text;html=1;align=center;verticalAlign=middle;whiteSpace=wrap;rounded=0;" parent="1" vertex="1">
          <mxGeometry x="285.75000000000006" y="3389" width="60" height="30" as="geometry" />
        </mxCell>
        <mxCell id="nBvJbw0jXfMjI-mwf7v2-72" value="Display Error" style="shape=parallelogram;perimeter=parallelogramPerimeter;whiteSpace=wrap;html=1;fixedSize=1;" parent="1" vertex="1">
          <mxGeometry x="411.77" y="2969.5" width="135" height="43" as="geometry" />
        </mxCell>
        <mxCell id="nBvJbw0jXfMjI-mwf7v2-74" value="Display Error" style="shape=parallelogram;perimeter=parallelogramPerimeter;whiteSpace=wrap;html=1;fixedSize=1;" parent="1" vertex="1">
          <mxGeometry x="411.77" y="2662.5" width="145" height="47" as="geometry" />
        </mxCell>
        <mxCell id="nBvJbw0jXfMjI-mwf7v2-76" value="no" style="text;html=1;align=center;verticalAlign=middle;whiteSpace=wrap;rounded=0;" parent="1" vertex="1">
          <mxGeometry x="337.56" y="1642.5" width="60" height="30" as="geometry" />
        </mxCell>
        <mxCell id="nBvJbw0jXfMjI-mwf7v2-78" value="no" style="text;html=1;align=center;verticalAlign=middle;whiteSpace=wrap;rounded=0;" parent="1" vertex="1">
          <mxGeometry x="328.16" y="1965" width="60" height="30" as="geometry" />
        </mxCell>
        <mxCell id="nBvJbw0jXfMjI-mwf7v2-79" value="no" style="text;html=1;align=center;verticalAlign=middle;whiteSpace=wrap;rounded=0;" parent="1" vertex="1">
          <mxGeometry x="331.91" y="2115" width="60" height="30" as="geometry" />
        </mxCell>
        <mxCell id="nBvJbw0jXfMjI-mwf7v2-80" value="yes" style="text;html=1;align=center;verticalAlign=middle;whiteSpace=wrap;rounded=0;" parent="1" vertex="1">
          <mxGeometry x="248.16000000000008" y="1714" width="60" height="30" as="geometry" />
        </mxCell>
        <mxCell id="nBvJbw0jXfMjI-mwf7v2-81" value="yes" style="text;html=1;align=center;verticalAlign=middle;whiteSpace=wrap;rounded=0;" parent="1" vertex="1">
          <mxGeometry x="271.6600000000001" y="2050" width="60" height="30" as="geometry" />
        </mxCell>
        <mxCell id="nBvJbw0jXfMjI-mwf7v2-82" value="yes" style="text;html=1;align=center;verticalAlign=middle;whiteSpace=wrap;rounded=0;" parent="1" vertex="1">
          <mxGeometry x="271.6600000000001" y="2194" width="60" height="30" as="geometry" />
        </mxCell>
        <mxCell id="nBvJbw0jXfMjI-mwf7v2-83" value="yes" style="text;html=1;align=center;verticalAlign=middle;whiteSpace=wrap;rounded=0;" parent="1" vertex="1">
          <mxGeometry x="279.07000000000005" y="2718" width="60" height="30" as="geometry" />
        </mxCell>
        <mxCell id="nBvJbw0jXfMjI-mwf7v2-84" value="yes" style="text;html=1;align=center;verticalAlign=middle;whiteSpace=wrap;rounded=0;" parent="1" vertex="1">
          <mxGeometry x="290.6200000000001" y="3028" width="60" height="30" as="geometry" />
        </mxCell>
        <mxCell id="nBvJbw0jXfMjI-mwf7v2-85" value="yes" style="text;html=1;align=center;verticalAlign=middle;whiteSpace=wrap;rounded=0;" parent="1" vertex="1">
          <mxGeometry x="319.79000000000013" y="3311" width="60" height="30" as="geometry" />
        </mxCell>
        <mxCell id="nBvJbw0jXfMjI-mwf7v2-86" value="" style="endArrow=classic;html=1;rounded=0;exitX=1;exitY=0.5;exitDx=0;exitDy=0;" parent="1" source="nBvJbw0jXfMjI-mwf7v2-10" edge="1">
          <mxGeometry width="50" height="50" relative="1" as="geometry">
            <mxPoint x="363.56" y="1524" as="sourcePoint" />
            <mxPoint x="263.56" y="1444" as="targetPoint" />
            <Array as="points">
              <mxPoint x="623.5600000000001" y="1673" />
              <mxPoint x="623.5600000000001" y="1444" />
            </Array>
          </mxGeometry>
        </mxCell>
        <mxCell id="nBvJbw0jXfMjI-mwf7v2-87" value="" style="endArrow=classic;html=1;rounded=0;exitX=0.971;exitY=0.483;exitDx=0;exitDy=0;exitPerimeter=0;" parent="1" edge="1">
          <mxGeometry width="50" height="50" relative="1" as="geometry">
            <mxPoint x="558.601" y="1993.98" as="sourcePoint" />
            <mxPoint x="258.56" y="1744" as="targetPoint" />
            <Array as="points">
              <mxPoint x="583.5600000000001" y="1994" />
              <mxPoint x="583.5600000000001" y="1744" />
            </Array>
          </mxGeometry>
        </mxCell>
        <mxCell id="nBvJbw0jXfMjI-mwf7v2-88" value="" style="endArrow=none;html=1;rounded=0;exitX=1;exitY=0.5;exitDx=0;exitDy=0;" parent="1" source="nBvJbw0jXfMjI-mwf7v2-25" edge="1">
          <mxGeometry width="50" height="50" relative="1" as="geometry">
            <mxPoint x="583.5600000000001" y="2144" as="sourcePoint" />
            <mxPoint x="583.5600000000001" y="1994" as="targetPoint" />
            <Array as="points">
              <mxPoint x="583.5600000000001" y="2145" />
            </Array>
          </mxGeometry>
        </mxCell>
        <mxCell id="nBvJbw0jXfMjI-mwf7v2-89" value="" style="endArrow=classic;html=1;rounded=0;exitX=1;exitY=0.5;exitDx=0;exitDy=0;" parent="1" source="nBvJbw0jXfMjI-mwf7v2-51" edge="1">
          <mxGeometry width="50" height="50" relative="1" as="geometry">
            <mxPoint x="514.1500000000001" y="2110" as="sourcePoint" />
            <mxPoint x="270" y="1360" as="targetPoint" />
            <Array as="points">
              <mxPoint x="660" y="2276" />
              <mxPoint x="660" y="1360" />
            </Array>
          </mxGeometry>
        </mxCell>
        <mxCell id="nBvJbw0jXfMjI-mwf7v2-90" value="no" style="text;html=1;align=center;verticalAlign=middle;whiteSpace=wrap;rounded=0;" parent="1" vertex="1">
          <mxGeometry x="342.72" y="2658" width="60" height="30" as="geometry" />
        </mxCell>
        <mxCell id="nBvJbw0jXfMjI-mwf7v2-91" value="no" style="text;html=1;align=center;verticalAlign=middle;whiteSpace=wrap;rounded=0;" parent="1" vertex="1">
          <mxGeometry x="342.72" y="2958" width="60" height="30" as="geometry" />
        </mxCell>
        <mxCell id="nBvJbw0jXfMjI-mwf7v2-92" value="" style="endArrow=classic;html=1;rounded=0;exitX=1;exitY=0.5;exitDx=0;exitDy=0;" parent="1" source="nBvJbw0jXfMjI-mwf7v2-72" edge="1">
          <mxGeometry width="50" height="50" relative="1" as="geometry">
            <mxPoint x="451.77" y="2798" as="sourcePoint" />
            <mxPoint x="291.77" y="2748" as="targetPoint" />
            <Array as="points">
              <mxPoint x="551.77" y="2991" />
              <mxPoint x="551.77" y="2748" />
            </Array>
          </mxGeometry>
        </mxCell>
        <mxCell id="nBvJbw0jXfMjI-mwf7v2-93" value="" style="endArrow=classic;html=1;rounded=0;exitX=1;exitY=0.5;exitDx=0;exitDy=0;" parent="1" source="nBvJbw0jXfMjI-mwf7v2-74" edge="1">
          <mxGeometry width="50" height="50" relative="1" as="geometry">
            <mxPoint x="501.77" y="2678" as="sourcePoint" />
            <mxPoint x="281.77" y="2478" as="targetPoint" />
            <Array as="points">
              <mxPoint x="591.77" y="2686" />
              <mxPoint x="591.77" y="2478" />
            </Array>
          </mxGeometry>
        </mxCell>
        <mxCell id="nBvJbw0jXfMjI-mwf7v2-95" value="" style="endArrow=classic;html=1;rounded=0;exitX=1;exitY=0.5;exitDx=0;exitDy=0;entryX=0.964;entryY=0.4;entryDx=0;entryDy=0;entryPerimeter=0;" parent="1" source="nBvJbw0jXfMjI-mwf7v2-62" target="nBvJbw0jXfMjI-mwf7v2-52" edge="1">
          <mxGeometry width="50" height="50" relative="1" as="geometry">
            <mxPoint x="381.77" y="3298" as="sourcePoint" />
            <mxPoint x="601.77" y="3268" as="targetPoint" />
            <Array as="points">
              <mxPoint x="618.74" y="3349" />
              <mxPoint x="631.77" y="2418" />
            </Array>
          </mxGeometry>
        </mxCell>
        <mxCell id="1OD_2GAFe2Vb38w-pji7-3" value="" style="edgeStyle=orthogonalEdgeStyle;rounded=0;orthogonalLoop=1;jettySize=auto;html=1;" parent="1" source="1OD_2GAFe2Vb38w-pji7-1" target="1OD_2GAFe2Vb38w-pji7-2" edge="1">
          <mxGeometry relative="1" as="geometry" />
        </mxCell>
        <mxCell id="1OD_2GAFe2Vb38w-pji7-1" value="C-11" style="shape=offPageConnector;whiteSpace=wrap;html=1;" parent="1" vertex="1">
          <mxGeometry x="206.01" y="3521" width="80" height="80" as="geometry" />
        </mxCell>
        <mxCell id="1OD_2GAFe2Vb38w-pji7-7" value="" style="edgeStyle=orthogonalEdgeStyle;rounded=0;orthogonalLoop=1;jettySize=auto;html=1;" parent="1" source="1OD_2GAFe2Vb38w-pji7-2" target="1OD_2GAFe2Vb38w-pji7-6" edge="1">
          <mxGeometry relative="1" as="geometry" />
        </mxCell>
        <mxCell id="1OD_2GAFe2Vb38w-pji7-2" value="Display Update Menu&amp;nbsp;" style="shape=parallelogram;perimeter=parallelogramPerimeter;whiteSpace=wrap;html=1;fixedSize=1;" parent="1" vertex="1">
          <mxGeometry x="159" y="3680" width="175" height="40" as="geometry" />
        </mxCell>
        <mxCell id="1OD_2GAFe2Vb38w-pji7-6" value="input choice" style="shape=parallelogram;perimeter=parallelogramPerimeter;whiteSpace=wrap;html=1;fixedSize=1;" parent="1" vertex="1">
          <mxGeometry x="153.9" y="3750" width="184.23" height="40" as="geometry" />
        </mxCell>
        <mxCell id="1OD_2GAFe2Vb38w-pji7-108" value="" style="edgeStyle=orthogonalEdgeStyle;rounded=0;orthogonalLoop=1;jettySize=auto;html=1;" parent="1" source="1OD_2GAFe2Vb38w-pji7-109" target="1OD_2GAFe2Vb38w-pji7-111" edge="1">
          <mxGeometry relative="1" as="geometry" />
        </mxCell>
        <mxCell id="1OD_2GAFe2Vb38w-pji7-109" value="display product id promt" style="shape=parallelogram;perimeter=parallelogramPerimeter;whiteSpace=wrap;html=1;fixedSize=1;" parent="1" vertex="1">
          <mxGeometry x="145.01" y="3890" width="200" height="36" as="geometry" />
        </mxCell>
        <mxCell id="1OD_2GAFe2Vb38w-pji7-110" value="" style="edgeStyle=orthogonalEdgeStyle;rounded=0;orthogonalLoop=1;jettySize=auto;html=1;" parent="1" source="1OD_2GAFe2Vb38w-pji7-111" target="1OD_2GAFe2Vb38w-pji7-114" edge="1">
          <mxGeometry relative="1" as="geometry" />
        </mxCell>
        <mxCell id="1OD_2GAFe2Vb38w-pji7-111" value="input product_id" style="shape=parallelogram;perimeter=parallelogramPerimeter;whiteSpace=wrap;html=1;fixedSize=1;" parent="1" vertex="1">
          <mxGeometry x="151.01" y="3960" width="190" height="37" as="geometry" />
        </mxCell>
        <mxCell id="1OD_2GAFe2Vb38w-pji7-112" value="" style="edgeStyle=orthogonalEdgeStyle;rounded=0;orthogonalLoop=1;jettySize=auto;html=1;" parent="1" source="1OD_2GAFe2Vb38w-pji7-114" target="1OD_2GAFe2Vb38w-pji7-117" edge="1">
          <mxGeometry relative="1" as="geometry" />
        </mxCell>
        <mxCell id="1OD_2GAFe2Vb38w-pji7-113" value="" style="edgeStyle=orthogonalEdgeStyle;rounded=0;orthogonalLoop=1;jettySize=auto;html=1;" parent="1" source="1OD_2GAFe2Vb38w-pji7-114" target="1OD_2GAFe2Vb38w-pji7-118" edge="1">
          <mxGeometry relative="1" as="geometry" />
        </mxCell>
        <mxCell id="1OD_2GAFe2Vb38w-pji7-114" value="is the product &lt;br&gt;id valid" style="rhombus;whiteSpace=wrap;html=1;" parent="1" vertex="1">
          <mxGeometry x="176.51" y="4027" width="139" height="110" as="geometry" />
        </mxCell>
        <mxCell id="1OD_2GAFe2Vb38w-pji7-115" value="" style="edgeStyle=orthogonalEdgeStyle;rounded=0;orthogonalLoop=1;jettySize=auto;html=1;" parent="1" source="1OD_2GAFe2Vb38w-pji7-117" target="1OD_2GAFe2Vb38w-pji7-119" edge="1">
          <mxGeometry relative="1" as="geometry" />
        </mxCell>
        <mxCell id="1OD_2GAFe2Vb38w-pji7-141" value="" style="edgeStyle=orthogonalEdgeStyle;rounded=0;orthogonalLoop=1;jettySize=auto;html=1;entryX=0.468;entryY=-0.018;entryDx=0;entryDy=0;entryPerimeter=0;" parent="1" source="1OD_2GAFe2Vb38w-pji7-117" target="1OD_2GAFe2Vb38w-pji7-129" edge="1">
          <mxGeometry relative="1" as="geometry" />
        </mxCell>
        <mxCell id="1OD_2GAFe2Vb38w-pji7-117" value="product_id is &lt;br&gt;registered?" style="rhombus;whiteSpace=wrap;html=1;" parent="1" vertex="1">
          <mxGeometry x="176.82" y="4180" width="139" height="110" as="geometry" />
        </mxCell>
        <mxCell id="1OD_2GAFe2Vb38w-pji7-118" value="Display error" style="shape=parallelogram;perimeter=parallelogramPerimeter;whiteSpace=wrap;html=1;fixedSize=1;" parent="1" vertex="1">
          <mxGeometry x="379.34999999999997" y="4052" width="171" height="60" as="geometry" />
        </mxCell>
        <mxCell id="1OD_2GAFe2Vb38w-pji7-119" value="Display error" style="shape=parallelogram;perimeter=parallelogramPerimeter;whiteSpace=wrap;html=1;fixedSize=1;" parent="1" vertex="1">
          <mxGeometry x="371.6600000000001" y="4205" width="180" height="60" as="geometry" />
        </mxCell>
        <mxCell id="1OD_2GAFe2Vb38w-pji7-120" value="no" style="text;html=1;align=center;verticalAlign=middle;whiteSpace=wrap;rounded=0;" parent="1" vertex="1">
          <mxGeometry x="312.63" y="4022" width="60" height="30" as="geometry" />
        </mxCell>
        <mxCell id="1OD_2GAFe2Vb38w-pji7-121" value="no" style="text;html=1;align=center;verticalAlign=middle;whiteSpace=wrap;rounded=0;" parent="1" vertex="1">
          <mxGeometry x="316.38" y="4172" width="60" height="30" as="geometry" />
        </mxCell>
        <mxCell id="1OD_2GAFe2Vb38w-pji7-122" value="yes" style="text;html=1;align=center;verticalAlign=middle;whiteSpace=wrap;rounded=0;" parent="1" vertex="1">
          <mxGeometry x="252.31" y="4137" width="60" height="30" as="geometry" />
        </mxCell>
        <mxCell id="1OD_2GAFe2Vb38w-pji7-124" value="" style="endArrow=classic;html=1;rounded=0;exitX=1;exitY=0.5;exitDx=0;exitDy=0;" parent="1" source="1OD_2GAFe2Vb38w-pji7-118" edge="1">
          <mxGeometry width="50" height="50" relative="1" as="geometry">
            <mxPoint x="543.071" y="4050.9799999999996" as="sourcePoint" />
            <mxPoint x="250" y="3870" as="targetPoint" />
            <Array as="points">
              <mxPoint x="568" y="4082" />
              <mxPoint x="570" y="3870" />
            </Array>
          </mxGeometry>
        </mxCell>
        <mxCell id="1OD_2GAFe2Vb38w-pji7-125" value="" style="endArrow=none;html=1;rounded=0;exitX=1;exitY=0.5;exitDx=0;exitDy=0;" parent="1" source="1OD_2GAFe2Vb38w-pji7-119" edge="1">
          <mxGeometry width="50" height="50" relative="1" as="geometry">
            <mxPoint x="568.0300000000001" y="4201" as="sourcePoint" />
            <mxPoint x="568.0300000000001" y="4051" as="targetPoint" />
            <Array as="points">
              <mxPoint x="570" y="4235" />
            </Array>
          </mxGeometry>
        </mxCell>
        <mxCell id="1OD_2GAFe2Vb38w-pji7-128" value="" style="edgeStyle=orthogonalEdgeStyle;rounded=0;orthogonalLoop=1;jettySize=auto;html=1;" parent="1" source="1OD_2GAFe2Vb38w-pji7-129" target="1OD_2GAFe2Vb38w-pji7-131" edge="1">
          <mxGeometry relative="1" as="geometry" />
        </mxCell>
        <mxCell id="1OD_2GAFe2Vb38w-pji7-129" value="print &quot;Enter The &lt;br&gt;quantity: &quot;" style="shape=parallelogram;perimeter=parallelogramPerimeter;whiteSpace=wrap;html=1;fixedSize=1;" parent="1" vertex="1">
          <mxGeometry x="178.4" y="4320" width="148.08" height="40" as="geometry" />
        </mxCell>
        <mxCell id="1OD_2GAFe2Vb38w-pji7-130" value="" style="edgeStyle=orthogonalEdgeStyle;rounded=0;orthogonalLoop=1;jettySize=auto;html=1;" parent="1" source="1OD_2GAFe2Vb38w-pji7-131" target="1OD_2GAFe2Vb38w-pji7-134" edge="1">
          <mxGeometry relative="1" as="geometry" />
        </mxCell>
        <mxCell id="1OD_2GAFe2Vb38w-pji7-131" value="input quantity" style="shape=parallelogram;perimeter=parallelogramPerimeter;whiteSpace=wrap;html=1;fixedSize=1;" parent="1" vertex="1">
          <mxGeometry x="173.41" y="4400" width="158.08" height="40" as="geometry" />
        </mxCell>
        <mxCell id="1OD_2GAFe2Vb38w-pji7-132" value="" style="edgeStyle=orthogonalEdgeStyle;rounded=0;orthogonalLoop=1;jettySize=auto;html=1;" parent="1" source="1OD_2GAFe2Vb38w-pji7-134" edge="1">
          <mxGeometry relative="1" as="geometry">
            <mxPoint x="252.32" y="4580" as="targetPoint" />
          </mxGeometry>
        </mxCell>
        <mxCell id="1OD_2GAFe2Vb38w-pji7-133" value="" style="edgeStyle=orthogonalEdgeStyle;rounded=0;orthogonalLoop=1;jettySize=auto;html=1;" parent="1" source="1OD_2GAFe2Vb38w-pji7-134" target="1OD_2GAFe2Vb38w-pji7-136" edge="1">
          <mxGeometry relative="1" as="geometry" />
        </mxCell>
        <mxCell id="1OD_2GAFe2Vb38w-pji7-134" value="quantity is integer ?" style="rhombus;whiteSpace=wrap;html=1;" parent="1" vertex="1">
          <mxGeometry x="206.09999999999997" y="4470" width="92.69" height="90" as="geometry" />
        </mxCell>
        <mxCell id="1OD_2GAFe2Vb38w-pji7-136" value="Display error" style="shape=parallelogram;perimeter=parallelogramPerimeter;whiteSpace=wrap;html=1;fixedSize=1;" parent="1" vertex="1">
          <mxGeometry x="379.34999999999997" y="4493.5" width="135" height="43" as="geometry" />
        </mxCell>
        <mxCell id="1OD_2GAFe2Vb38w-pji7-137" value="yes" style="text;html=1;align=center;verticalAlign=middle;whiteSpace=wrap;rounded=0;" parent="1" vertex="1">
          <mxGeometry x="261.88000000000005" y="4280" width="60" height="30" as="geometry" />
        </mxCell>
        <mxCell id="1OD_2GAFe2Vb38w-pji7-138" value="yes" style="text;html=1;align=center;verticalAlign=middle;whiteSpace=wrap;rounded=0;" parent="1" vertex="1">
          <mxGeometry x="258.2000000000001" y="4552" width="60" height="30" as="geometry" />
        </mxCell>
        <mxCell id="1OD_2GAFe2Vb38w-pji7-139" value="no" style="text;html=1;align=center;verticalAlign=middle;whiteSpace=wrap;rounded=0;" parent="1" vertex="1">
          <mxGeometry x="310.3" y="4482" width="60" height="30" as="geometry" />
        </mxCell>
        <mxCell id="1OD_2GAFe2Vb38w-pji7-140" value="" style="endArrow=classic;html=1;rounded=0;exitX=1;exitY=0.5;exitDx=0;exitDy=0;" parent="1" source="1OD_2GAFe2Vb38w-pji7-136" edge="1">
          <mxGeometry width="50" height="50" relative="1" as="geometry">
            <mxPoint x="419.34999999999997" y="4322" as="sourcePoint" />
            <mxPoint x="259" y="4310" as="targetPoint" />
            <Array as="points">
              <mxPoint x="519.35" y="4515" />
              <mxPoint x="520" y="4310" />
              <mxPoint x="380" y="4310" />
            </Array>
          </mxGeometry>
        </mxCell>
        <mxCell id="1OD_2GAFe2Vb38w-pji7-142" value="C-12" style="shape=offPageConnector;whiteSpace=wrap;html=1;" parent="1" vertex="1">
          <mxGeometry x="210.95999999999998" y="4582" width="80" height="80" as="geometry" />
        </mxCell>
        <mxCell id="1OD_2GAFe2Vb38w-pji7-146" value="" style="edgeStyle=orthogonalEdgeStyle;rounded=0;orthogonalLoop=1;jettySize=auto;html=1;" parent="1" target="1OD_2GAFe2Vb38w-pji7-145" edge="1">
          <mxGeometry relative="1" as="geometry">
            <mxPoint x="211.18181818181824" y="5069" as="sourcePoint" />
          </mxGeometry>
        </mxCell>
        <mxCell id="oBfjSgjX7fKPl6Nq7a0--3" value="" style="edgeStyle=orthogonalEdgeStyle;rounded=0;orthogonalLoop=1;jettySize=auto;html=1;" parent="1" source="1OD_2GAFe2Vb38w-pji7-143" target="oBfjSgjX7fKPl6Nq7a0--2" edge="1">
          <mxGeometry relative="1" as="geometry" />
        </mxCell>
        <mxCell id="1OD_2GAFe2Vb38w-pji7-143" value="C-12" style="shape=offPageConnector;whiteSpace=wrap;html=1;" parent="1" vertex="1">
          <mxGeometry x="171.14" y="4910" width="80" height="80" as="geometry" />
        </mxCell>
        <mxCell id="1OD_2GAFe2Vb38w-pji7-148" value="" style="edgeStyle=orthogonalEdgeStyle;rounded=0;orthogonalLoop=1;jettySize=auto;html=1;" parent="1" source="1OD_2GAFe2Vb38w-pji7-145" target="1OD_2GAFe2Vb38w-pji7-147" edge="1">
          <mxGeometry relative="1" as="geometry" />
        </mxCell>
        <mxCell id="1OD_2GAFe2Vb38w-pji7-154" value="" style="edgeStyle=orthogonalEdgeStyle;rounded=0;orthogonalLoop=1;jettySize=auto;html=1;" parent="1" source="1OD_2GAFe2Vb38w-pji7-145" target="1OD_2GAFe2Vb38w-pji7-153" edge="1">
          <mxGeometry relative="1" as="geometry" />
        </mxCell>
        <mxCell id="1OD_2GAFe2Vb38w-pji7-145" value="choice == 1" style="rhombus;whiteSpace=wrap;html=1;" parent="1" vertex="1">
          <mxGeometry x="165.45" y="5099" width="89.67" height="90" as="geometry" />
        </mxCell>
        <mxCell id="1OD_2GAFe2Vb38w-pji7-150" value="" style="edgeStyle=orthogonalEdgeStyle;rounded=0;orthogonalLoop=1;jettySize=auto;html=1;" parent="1" source="1OD_2GAFe2Vb38w-pji7-147" target="1OD_2GAFe2Vb38w-pji7-149" edge="1">
          <mxGeometry relative="1" as="geometry" />
        </mxCell>
        <mxCell id="1OD_2GAFe2Vb38w-pji7-156" value="" style="edgeStyle=orthogonalEdgeStyle;rounded=0;orthogonalLoop=1;jettySize=auto;html=1;" parent="1" source="1OD_2GAFe2Vb38w-pji7-147" target="1OD_2GAFe2Vb38w-pji7-155" edge="1">
          <mxGeometry relative="1" as="geometry" />
        </mxCell>
        <mxCell id="1OD_2GAFe2Vb38w-pji7-147" value="choice == 2" style="rhombus;whiteSpace=wrap;html=1;" parent="1" vertex="1">
          <mxGeometry x="160.15999999999997" y="5219" width="99.67" height="90" as="geometry" />
        </mxCell>
        <mxCell id="1OD_2GAFe2Vb38w-pji7-158" value="" style="edgeStyle=orthogonalEdgeStyle;rounded=0;orthogonalLoop=1;jettySize=auto;html=1;" parent="1" source="1OD_2GAFe2Vb38w-pji7-149" target="1OD_2GAFe2Vb38w-pji7-157" edge="1">
          <mxGeometry relative="1" as="geometry" />
        </mxCell>
        <mxCell id="1OD_2GAFe2Vb38w-pji7-171" value="" style="edgeStyle=orthogonalEdgeStyle;rounded=0;orthogonalLoop=1;jettySize=auto;html=1;" parent="1" source="1OD_2GAFe2Vb38w-pji7-149" target="1OD_2GAFe2Vb38w-pji7-170" edge="1">
          <mxGeometry relative="1" as="geometry" />
        </mxCell>
        <mxCell id="1OD_2GAFe2Vb38w-pji7-149" value="choice == 3" style="rhombus;whiteSpace=wrap;html=1;" parent="1" vertex="1">
          <mxGeometry x="159.30999999999995" y="5349" width="99.67" height="90" as="geometry" />
        </mxCell>
        <mxCell id="1OD_2GAFe2Vb38w-pji7-153" value="action = &quot;Restock&quot;" style="whiteSpace=wrap;html=1;" parent="1" vertex="1">
          <mxGeometry x="315.355" y="5114" width="120" height="60" as="geometry" />
        </mxCell>
        <mxCell id="1OD_2GAFe2Vb38w-pji7-155" value="action = &quot;Return&quot;" style="whiteSpace=wrap;html=1;" parent="1" vertex="1">
          <mxGeometry x="319.41499999999996" y="5234" width="120" height="60" as="geometry" />
        </mxCell>
        <mxCell id="1OD_2GAFe2Vb38w-pji7-157" value="action = &quot;out&quot;" style="whiteSpace=wrap;html=1;" parent="1" vertex="1">
          <mxGeometry x="315.29499999999996" y="5364" width="120" height="60" as="geometry" />
        </mxCell>
        <mxCell id="oBfjSgjX7fKPl6Nq7a0--73" value="" style="edgeStyle=orthogonalEdgeStyle;rounded=0;orthogonalLoop=1;jettySize=auto;html=1;exitX=1;exitY=0.5;exitDx=0;exitDy=0;" parent="1" source="1OD_2GAFe2Vb38w-pji7-155" target="1OD_2GAFe2Vb38w-pji7-197" edge="1">
          <mxGeometry relative="1" as="geometry">
            <mxPoint x="676.4928" y="5264.320000000001" as="sourcePoint" />
          </mxGeometry>
        </mxCell>
        <mxCell id="1OD_2GAFe2Vb38w-pji7-164" value="1" style="ellipse;whiteSpace=wrap;html=1;aspect=fixed;" parent="1" vertex="1">
          <mxGeometry x="221.88" y="3820" width="45.67" height="45.67" as="geometry" />
        </mxCell>
        <mxCell id="1OD_2GAFe2Vb38w-pji7-165" value="" style="endArrow=classic;html=1;rounded=0;entryX=0.5;entryY=0;entryDx=0;entryDy=0;exitX=0.5;exitY=1;exitDx=0;exitDy=0;" parent="1" source="1OD_2GAFe2Vb38w-pji7-6" target="1OD_2GAFe2Vb38w-pji7-164" edge="1">
          <mxGeometry width="50" height="50" relative="1" as="geometry">
            <mxPoint x="246" y="3770" as="sourcePoint" />
            <mxPoint x="454.46" y="3911" as="targetPoint" />
          </mxGeometry>
        </mxCell>
        <mxCell id="1OD_2GAFe2Vb38w-pji7-166" value="" style="endArrow=classic;html=1;rounded=0;exitX=0.5;exitY=1;exitDx=0;exitDy=0;entryX=0.5;entryY=0;entryDx=0;entryDy=0;" parent="1" source="1OD_2GAFe2Vb38w-pji7-164" target="1OD_2GAFe2Vb38w-pji7-109" edge="1">
          <mxGeometry width="50" height="50" relative="1" as="geometry">
            <mxPoint x="404.46" y="3961" as="sourcePoint" />
            <mxPoint x="454.46" y="3911" as="targetPoint" />
          </mxGeometry>
        </mxCell>
        <mxCell id="1OD_2GAFe2Vb38w-pji7-169" value="" style="edgeStyle=orthogonalEdgeStyle;rounded=0;orthogonalLoop=1;jettySize=auto;html=1;" parent="1" source="1OD_2GAFe2Vb38w-pji7-167" target="1OD_2GAFe2Vb38w-pji7-168" edge="1">
          <mxGeometry relative="1" as="geometry" />
        </mxCell>
        <mxCell id="1OD_2GAFe2Vb38w-pji7-167" value="1" style="ellipse;whiteSpace=wrap;html=1;aspect=fixed;" parent="1" vertex="1">
          <mxGeometry x="662.16" y="3540" width="45.67" height="45.67" as="geometry" />
        </mxCell>
        <mxCell id="1OD_2GAFe2Vb38w-pji7-168" value="product_data = retrieve data from product txt" style="rounded=0;whiteSpace=wrap;html=1;" parent="1" vertex="1">
          <mxGeometry x="620" y="3620" width="130" height="60" as="geometry" />
        </mxCell>
        <mxCell id="1OD_2GAFe2Vb38w-pji7-173" value="" style="edgeStyle=orthogonalEdgeStyle;rounded=0;orthogonalLoop=1;jettySize=auto;html=1;" parent="1" source="1OD_2GAFe2Vb38w-pji7-170" target="1OD_2GAFe2Vb38w-pji7-172" edge="1">
          <mxGeometry relative="1" as="geometry" />
        </mxCell>
        <mxCell id="1OD_2GAFe2Vb38w-pji7-176" value="" style="edgeStyle=orthogonalEdgeStyle;rounded=0;orthogonalLoop=1;jettySize=auto;html=1;" parent="1" source="1OD_2GAFe2Vb38w-pji7-170" target="1OD_2GAFe2Vb38w-pji7-175" edge="1">
          <mxGeometry relative="1" as="geometry" />
        </mxCell>
        <mxCell id="1OD_2GAFe2Vb38w-pji7-170" value="choice == 4" style="rhombus;whiteSpace=wrap;html=1;" parent="1" vertex="1">
          <mxGeometry x="160.43999999999994" y="5469" width="99.67" height="90" as="geometry" />
        </mxCell>
        <mxCell id="1OD_2GAFe2Vb38w-pji7-172" value="&lt;div&gt;Display error&lt;/div&gt;" style="shape=parallelogram;perimeter=parallelogramPerimeter;whiteSpace=wrap;html=1;fixedSize=1;" parent="1" vertex="1">
          <mxGeometry x="313.26" y="5486.5" width="120" height="55" as="geometry" />
        </mxCell>
        <mxCell id="1OD_2GAFe2Vb38w-pji7-175" value="Return" style="ellipse;whiteSpace=wrap;html=1;" parent="1" vertex="1">
          <mxGeometry x="155" y="5609" width="110" height="40" as="geometry" />
        </mxCell>
        <mxCell id="1OD_2GAFe2Vb38w-pji7-181" value="" style="endArrow=classic;html=1;rounded=0;exitX=1;exitY=0.5;exitDx=0;exitDy=0;" parent="1" source="1OD_2GAFe2Vb38w-pji7-142" edge="1">
          <mxGeometry width="50" height="50" relative="1" as="geometry">
            <mxPoint x="480" y="4300" as="sourcePoint" />
            <mxPoint x="260" y="3670" as="targetPoint" />
            <Array as="points">
              <mxPoint x="600" y="4622" />
              <mxPoint x="600" y="3670" />
            </Array>
          </mxGeometry>
        </mxCell>
        <mxCell id="1OD_2GAFe2Vb38w-pji7-182" value="no" style="text;html=1;align=center;verticalAlign=middle;whiteSpace=wrap;rounded=0;" parent="1" vertex="1">
          <mxGeometry x="203" y="5184" width="60" height="30" as="geometry" />
        </mxCell>
        <mxCell id="1OD_2GAFe2Vb38w-pji7-183" value="no" style="text;html=1;align=center;verticalAlign=middle;whiteSpace=wrap;rounded=0;" parent="1" vertex="1">
          <mxGeometry x="208.41" y="5304" width="60" height="30" as="geometry" />
        </mxCell>
        <mxCell id="1OD_2GAFe2Vb38w-pji7-184" value="no" style="text;html=1;align=center;verticalAlign=middle;whiteSpace=wrap;rounded=0;" parent="1" vertex="1">
          <mxGeometry x="200.88" y="5434" width="60" height="30" as="geometry" />
        </mxCell>
        <mxCell id="1OD_2GAFe2Vb38w-pji7-185" value="yes" style="text;html=1;align=center;verticalAlign=middle;whiteSpace=wrap;rounded=0;" parent="1" vertex="1">
          <mxGeometry x="205" y="5568" width="60" height="30" as="geometry" />
        </mxCell>
        <mxCell id="1OD_2GAFe2Vb38w-pji7-186" value="no" style="text;html=1;align=center;verticalAlign=middle;whiteSpace=wrap;rounded=0;" parent="1" vertex="1">
          <mxGeometry x="255.12" y="5486.5" width="60" height="30" as="geometry" />
        </mxCell>
        <mxCell id="1OD_2GAFe2Vb38w-pji7-187" value="yes" style="text;html=1;align=center;verticalAlign=middle;whiteSpace=wrap;rounded=0;" parent="1" vertex="1">
          <mxGeometry x="251.01" y="5364" width="60" height="30" as="geometry" />
        </mxCell>
        <mxCell id="1OD_2GAFe2Vb38w-pji7-188" value="yes" style="text;html=1;align=center;verticalAlign=middle;whiteSpace=wrap;rounded=0;" parent="1" vertex="1">
          <mxGeometry x="253" y="5234" width="60" height="30" as="geometry" />
        </mxCell>
        <mxCell id="1OD_2GAFe2Vb38w-pji7-189" value="yes" style="text;html=1;align=center;verticalAlign=middle;whiteSpace=wrap;rounded=0;" parent="1" vertex="1">
          <mxGeometry x="247.25" y="5114" width="60" height="30" as="geometry" />
        </mxCell>
        <mxCell id="lomSyerv8LN0R2Z5AA1Y-18" value="" style="edgeStyle=orthogonalEdgeStyle;rounded=0;orthogonalLoop=1;jettySize=auto;html=1;" parent="1" source="1OD_2GAFe2Vb38w-pji7-190" target="lomSyerv8LN0R2Z5AA1Y-17" edge="1">
          <mxGeometry relative="1" as="geometry" />
        </mxCell>
        <mxCell id="1OD_2GAFe2Vb38w-pji7-190" value="C-13" style="shape=offPageConnector;whiteSpace=wrap;html=1;" parent="1" vertex="1">
          <mxGeometry x="250.58000000000004" y="5920" width="80" height="80" as="geometry" />
        </mxCell>
        <mxCell id="1OD_2GAFe2Vb38w-pji7-191" value="Display Sucessfull &lt;br&gt;Notification" style="shape=parallelogram;perimeter=parallelogramPerimeter;whiteSpace=wrap;html=1;fixedSize=1;" parent="1" vertex="1">
          <mxGeometry x="200.88" y="3079" width="170" height="40" as="geometry" />
        </mxCell>
        <mxCell id="1OD_2GAFe2Vb38w-pji7-195" value="" style="endArrow=classic;html=1;rounded=0;exitX=0.465;exitY=1.004;exitDx=0;exitDy=0;exitPerimeter=0;entryX=0.5;entryY=0;entryDx=0;entryDy=0;" parent="1" source="1OD_2GAFe2Vb38w-pji7-191" target="nBvJbw0jXfMjI-mwf7v2-56" edge="1">
          <mxGeometry width="50" height="50" relative="1" as="geometry">
            <mxPoint x="418.74" y="3309" as="sourcePoint" />
            <mxPoint x="468.74" y="3259" as="targetPoint" />
          </mxGeometry>
        </mxCell>
        <mxCell id="1OD_2GAFe2Vb38w-pji7-197" value="Display &lt;br&gt;Sucessfull Notification" style="shape=parallelogram;perimeter=parallelogramPerimeter;whiteSpace=wrap;html=1;fixedSize=1;" parent="1" vertex="1">
          <mxGeometry x="515.6600000000001" y="5234" width="116.38" height="60" as="geometry" />
        </mxCell>
        <mxCell id="1OD_2GAFe2Vb38w-pji7-201" value="" style="endArrow=classic;html=1;rounded=0;exitX=1;exitY=0.5;exitDx=0;exitDy=0;entryX=1;entryY=0.25;entryDx=0;entryDy=0;" parent="1" source="1OD_2GAFe2Vb38w-pji7-172" target="1OD_2GAFe2Vb38w-pji7-143" edge="1">
          <mxGeometry width="50" height="50" relative="1" as="geometry">
            <mxPoint x="627.97" y="5150" as="sourcePoint" />
            <mxPoint x="677.97" y="5100" as="targetPoint" />
            <Array as="points">
              <mxPoint x="676" y="5514" />
              <mxPoint x="676" y="4930" />
            </Array>
          </mxGeometry>
        </mxCell>
        <mxCell id="1OD_2GAFe2Vb38w-pji7-202" value="" style="endArrow=none;html=1;rounded=0;exitX=1;exitY=0.5;exitDx=0;exitDy=0;" parent="1" source="1OD_2GAFe2Vb38w-pji7-197" edge="1">
          <mxGeometry width="50" height="50" relative="1" as="geometry">
            <mxPoint x="717.97" y="5269" as="sourcePoint" />
            <mxPoint x="676" y="5264" as="targetPoint" />
          </mxGeometry>
        </mxCell>
        <mxCell id="oBfjSgjX7fKPl6Nq7a0--2" value="get the date based on devices date" style="rounded=0;whiteSpace=wrap;html=1;" parent="1" vertex="1">
          <mxGeometry x="151" y="5019" width="120" height="50" as="geometry" />
        </mxCell>
        <mxCell id="oBfjSgjX7fKPl6Nq7a0--24" value="" style="edgeStyle=orthogonalEdgeStyle;rounded=0;orthogonalLoop=1;jettySize=auto;html=1;" parent="1" source="oBfjSgjX7fKPl6Nq7a0--4" target="oBfjSgjX7fKPl6Nq7a0--7" edge="1">
          <mxGeometry relative="1" as="geometry" />
        </mxCell>
        <mxCell id="oBfjSgjX7fKPl6Nq7a0--4" value="product_data = retrieve data from product txt" style="rounded=0;whiteSpace=wrap;html=1;" parent="1" vertex="1">
          <mxGeometry x="225.34000000000003" y="6120" width="130" height="60" as="geometry" />
        </mxCell>
        <mxCell id="oBfjSgjX7fKPl6Nq7a0--6" value="" style="edgeStyle=orthogonalEdgeStyle;rounded=0;orthogonalLoop=1;jettySize=auto;html=1;" parent="1" source="oBfjSgjX7fKPl6Nq7a0--7" target="oBfjSgjX7fKPl6Nq7a0--9" edge="1">
          <mxGeometry relative="1" as="geometry" />
        </mxCell>
        <mxCell id="oBfjSgjX7fKPl6Nq7a0--7" value="Display product id input promt" style="shape=parallelogram;perimeter=parallelogramPerimeter;whiteSpace=wrap;html=1;fixedSize=1;" parent="1" vertex="1">
          <mxGeometry x="190.3" y="6210" width="200" height="36" as="geometry" />
        </mxCell>
        <mxCell id="oBfjSgjX7fKPl6Nq7a0--8" value="" style="edgeStyle=orthogonalEdgeStyle;rounded=0;orthogonalLoop=1;jettySize=auto;html=1;" parent="1" source="oBfjSgjX7fKPl6Nq7a0--9" target="oBfjSgjX7fKPl6Nq7a0--12" edge="1">
          <mxGeometry relative="1" as="geometry" />
        </mxCell>
        <mxCell id="oBfjSgjX7fKPl6Nq7a0--9" value="input product id" style="shape=parallelogram;perimeter=parallelogramPerimeter;whiteSpace=wrap;html=1;fixedSize=1;" parent="1" vertex="1">
          <mxGeometry x="195.3" y="6270" width="190" height="40" as="geometry" />
        </mxCell>
        <mxCell id="oBfjSgjX7fKPl6Nq7a0--10" value="" style="edgeStyle=orthogonalEdgeStyle;rounded=0;orthogonalLoop=1;jettySize=auto;html=1;" parent="1" source="oBfjSgjX7fKPl6Nq7a0--12" target="oBfjSgjX7fKPl6Nq7a0--14" edge="1">
          <mxGeometry relative="1" as="geometry" />
        </mxCell>
        <mxCell id="oBfjSgjX7fKPl6Nq7a0--11" value="" style="edgeStyle=orthogonalEdgeStyle;rounded=0;orthogonalLoop=1;jettySize=auto;html=1;" parent="1" source="oBfjSgjX7fKPl6Nq7a0--12" target="oBfjSgjX7fKPl6Nq7a0--15" edge="1">
          <mxGeometry relative="1" as="geometry" />
        </mxCell>
        <mxCell id="oBfjSgjX7fKPl6Nq7a0--12" value="is the &lt;br&gt;product id valid?" style="rhombus;whiteSpace=wrap;html=1;" parent="1" vertex="1">
          <mxGeometry x="221.08000000000004" y="6340" width="139" height="110" as="geometry" />
        </mxCell>
        <mxCell id="oBfjSgjX7fKPl6Nq7a0--13" value="" style="edgeStyle=orthogonalEdgeStyle;rounded=0;orthogonalLoop=1;jettySize=auto;html=1;" parent="1" source="oBfjSgjX7fKPl6Nq7a0--14" target="oBfjSgjX7fKPl6Nq7a0--16" edge="1">
          <mxGeometry relative="1" as="geometry" />
        </mxCell>
        <mxCell id="oBfjSgjX7fKPl6Nq7a0--26" value="" style="edgeStyle=orthogonalEdgeStyle;rounded=0;orthogonalLoop=1;jettySize=auto;html=1;" parent="1" source="oBfjSgjX7fKPl6Nq7a0--14" target="oBfjSgjX7fKPl6Nq7a0--25" edge="1">
          <mxGeometry relative="1" as="geometry" />
        </mxCell>
        <mxCell id="oBfjSgjX7fKPl6Nq7a0--14" value="product_id is &lt;br&gt;registered?" style="rhombus;whiteSpace=wrap;html=1;" parent="1" vertex="1">
          <mxGeometry x="220.80000000000007" y="6490" width="139" height="110" as="geometry" />
        </mxCell>
        <mxCell id="oBfjSgjX7fKPl6Nq7a0--15" value="display error" style="shape=parallelogram;perimeter=parallelogramPerimeter;whiteSpace=wrap;html=1;fixedSize=1;" parent="1" vertex="1">
          <mxGeometry x="422.62" y="6365" width="171" height="60" as="geometry" />
        </mxCell>
        <mxCell id="oBfjSgjX7fKPl6Nq7a0--16" value="display erorr" style="shape=parallelogram;perimeter=parallelogramPerimeter;whiteSpace=wrap;html=1;fixedSize=1;" parent="1" vertex="1">
          <mxGeometry x="413.6200000000001" y="6515" width="180" height="60" as="geometry" />
        </mxCell>
        <mxCell id="oBfjSgjX7fKPl6Nq7a0--17" value="no" style="text;html=1;align=center;verticalAlign=middle;whiteSpace=wrap;rounded=0;" parent="1" vertex="1">
          <mxGeometry x="350.83000000000004" y="6365" width="60" height="30" as="geometry" />
        </mxCell>
        <mxCell id="oBfjSgjX7fKPl6Nq7a0--18" value="no" style="text;html=1;align=center;verticalAlign=middle;whiteSpace=wrap;rounded=0;" parent="1" vertex="1">
          <mxGeometry x="353.62000000000006" y="6510" width="60" height="30" as="geometry" />
        </mxCell>
        <mxCell id="oBfjSgjX7fKPl6Nq7a0--19" value="yes" style="text;html=1;align=center;verticalAlign=middle;whiteSpace=wrap;rounded=0;" parent="1" vertex="1">
          <mxGeometry x="300.89000000000004" y="6450" width="60" height="30" as="geometry" />
        </mxCell>
        <mxCell id="oBfjSgjX7fKPl6Nq7a0--20" value="" style="endArrow=classic;html=1;rounded=0;exitX=1;exitY=0.5;exitDx=0;exitDy=0;" parent="1" source="oBfjSgjX7fKPl6Nq7a0--15" edge="1">
          <mxGeometry width="50" height="50" relative="1" as="geometry">
            <mxPoint x="587.5809999999999" y="6349.98" as="sourcePoint" />
            <mxPoint x="298.92" y="6190" as="targetPoint" />
            <Array as="points">
              <mxPoint x="608.92" y="6395" />
              <mxPoint x="608.92" y="6190" />
            </Array>
          </mxGeometry>
        </mxCell>
        <mxCell id="oBfjSgjX7fKPl6Nq7a0--21" value="" style="endArrow=none;html=1;rounded=0;exitX=1;exitY=0.5;exitDx=0;exitDy=0;" parent="1" source="oBfjSgjX7fKPl6Nq7a0--16" edge="1">
          <mxGeometry width="50" height="50" relative="1" as="geometry">
            <mxPoint x="612.54" y="6500" as="sourcePoint" />
            <mxPoint x="608.92" y="6350" as="targetPoint" />
            <Array as="points">
              <mxPoint x="608.92" y="6545" />
            </Array>
          </mxGeometry>
        </mxCell>
        <mxCell id="oBfjSgjX7fKPl6Nq7a0--22" value="yes" style="text;html=1;align=center;verticalAlign=middle;whiteSpace=wrap;rounded=0;" parent="1" vertex="1">
          <mxGeometry x="301.39000000000004" y="6600" width="60" height="30" as="geometry" />
        </mxCell>
        <mxCell id="oBfjSgjX7fKPl6Nq7a0--28" value="" style="edgeStyle=orthogonalEdgeStyle;rounded=0;orthogonalLoop=1;jettySize=auto;html=1;" parent="1" source="oBfjSgjX7fKPl6Nq7a0--25" target="oBfjSgjX7fKPl6Nq7a0--27" edge="1">
          <mxGeometry relative="1" as="geometry" />
        </mxCell>
        <mxCell id="lomSyerv8LN0R2Z5AA1Y-15" value="" style="edgeStyle=orthogonalEdgeStyle;rounded=0;orthogonalLoop=1;jettySize=auto;html=1;" parent="1" source="oBfjSgjX7fKPl6Nq7a0--25" target="oBfjSgjX7fKPl6Nq7a0--33" edge="1">
          <mxGeometry relative="1" as="geometry" />
        </mxCell>
        <mxCell id="oBfjSgjX7fKPl6Nq7a0--25" value="product_id status == &quot;discontinued&quot;&amp;nbsp;" style="rhombus;whiteSpace=wrap;html=1;" parent="1" vertex="1">
          <mxGeometry x="220.84000000000003" y="6640" width="139" height="110" as="geometry" />
        </mxCell>
        <mxCell id="oBfjSgjX7fKPl6Nq7a0--27" value="display error" style="shape=parallelogram;perimeter=parallelogramPerimeter;whiteSpace=wrap;html=1;fixedSize=1;" parent="1" vertex="1">
          <mxGeometry x="404.92" y="6665" width="174" height="60" as="geometry" />
        </mxCell>
        <mxCell id="4mKnrda53vHYU6JCkbgt-2" value="" style="edgeStyle=orthogonalEdgeStyle;rounded=0;orthogonalLoop=1;jettySize=auto;html=1;" edge="1" parent="1" source="oBfjSgjX7fKPl6Nq7a0--33" target="oBfjSgjX7fKPl6Nq7a0--35">
          <mxGeometry relative="1" as="geometry" />
        </mxCell>
        <mxCell id="oBfjSgjX7fKPl6Nq7a0--33" value="get the date based on devices date" style="rounded=0;whiteSpace=wrap;html=1;" parent="1" vertex="1">
          <mxGeometry x="206.39000000000004" y="6790" width="170" height="50" as="geometry" />
        </mxCell>
        <mxCell id="oBfjSgjX7fKPl6Nq7a0--35" value="Return" style="ellipse;whiteSpace=wrap;html=1;" parent="1" vertex="1">
          <mxGeometry x="235.34000000000003" y="6900" width="110" height="40" as="geometry" />
        </mxCell>
        <mxCell id="oBfjSgjX7fKPl6Nq7a0--37" value="" style="endArrow=classic;html=1;rounded=0;exitX=0.953;exitY=0.419;exitDx=0;exitDy=0;entryX=1;entryY=0.5;entryDx=0;entryDy=0;exitPerimeter=0;" parent="1" source="oBfjSgjX7fKPl6Nq7a0--27" target="oBfjSgjX7fKPl6Nq7a0--35" edge="1">
          <mxGeometry width="50" height="50" relative="1" as="geometry">
            <mxPoint x="335.47" y="6710" as="sourcePoint" />
            <mxPoint x="385.47" y="6660" as="targetPoint" />
            <Array as="points">
              <mxPoint x="598.92" y="6690" />
              <mxPoint x="595.92" y="6920" />
            </Array>
          </mxGeometry>
        </mxCell>
        <mxCell id="oBfjSgjX7fKPl6Nq7a0--38" value="yes" style="text;html=1;align=center;verticalAlign=middle;whiteSpace=wrap;rounded=0;" parent="1" vertex="1">
          <mxGeometry x="294.8400000000001" y="6750" width="60" height="30" as="geometry" />
        </mxCell>
        <mxCell id="oBfjSgjX7fKPl6Nq7a0--39" value="no" style="text;html=1;align=center;verticalAlign=middle;whiteSpace=wrap;rounded=0;" parent="1" vertex="1">
          <mxGeometry x="353.62000000000006" y="6625" width="60" height="30" as="geometry" />
        </mxCell>
        <mxCell id="lomSyerv8LN0R2Z5AA1Y-22" value="" style="edgeStyle=orthogonalEdgeStyle;rounded=0;orthogonalLoop=1;jettySize=auto;html=1;" parent="1" source="oBfjSgjX7fKPl6Nq7a0--40" target="lomSyerv8LN0R2Z5AA1Y-20" edge="1">
          <mxGeometry relative="1" as="geometry" />
        </mxCell>
        <mxCell id="oBfjSgjX7fKPl6Nq7a0--40" value="C-14" style="shape=offPageConnector;whiteSpace=wrap;html=1;" parent="1" vertex="1">
          <mxGeometry x="209.54999999999998" y="7178" width="78.12" height="80" as="geometry" />
        </mxCell>
        <mxCell id="oBfjSgjX7fKPl6Nq7a0--49" value="" style="edgeStyle=orthogonalEdgeStyle;rounded=0;orthogonalLoop=1;jettySize=auto;html=1;" parent="1" source="oBfjSgjX7fKPl6Nq7a0--41" target="oBfjSgjX7fKPl6Nq7a0--48" edge="1">
          <mxGeometry relative="1" as="geometry" />
        </mxCell>
        <mxCell id="oBfjSgjX7fKPl6Nq7a0--41" value="record_data = retreive all data from inventory_record.txt" style="whiteSpace=wrap;html=1;" parent="1" vertex="1">
          <mxGeometry x="171.64000000000001" y="7369" width="153.62" height="60" as="geometry" />
        </mxCell>
        <mxCell id="oBfjSgjX7fKPl6Nq7a0--51" value="" style="edgeStyle=orthogonalEdgeStyle;rounded=0;orthogonalLoop=1;jettySize=auto;html=1;" parent="1" source="oBfjSgjX7fKPl6Nq7a0--48" target="oBfjSgjX7fKPl6Nq7a0--50" edge="1">
          <mxGeometry relative="1" as="geometry" />
        </mxCell>
        <mxCell id="4mKnrda53vHYU6JCkbgt-3" value="" style="edgeStyle=orthogonalEdgeStyle;rounded=0;orthogonalLoop=1;jettySize=auto;html=1;" edge="1" parent="1" source="oBfjSgjX7fKPl6Nq7a0--48" target="oBfjSgjX7fKPl6Nq7a0--54">
          <mxGeometry relative="1" as="geometry" />
        </mxCell>
        <mxCell id="oBfjSgjX7fKPl6Nq7a0--48" value="Display View &lt;br&gt;Menu" style="shape=parallelogram;perimeter=parallelogramPerimeter;whiteSpace=wrap;html=1;fixedSize=1;" parent="1" vertex="1">
          <mxGeometry x="162.41" y="7459" width="171.21" height="40" as="geometry" />
        </mxCell>
        <mxCell id="oBfjSgjX7fKPl6Nq7a0--55" value="" style="edgeStyle=orthogonalEdgeStyle;rounded=0;orthogonalLoop=1;jettySize=auto;html=1;" parent="1" source="oBfjSgjX7fKPl6Nq7a0--50" target="oBfjSgjX7fKPl6Nq7a0--54" edge="1">
          <mxGeometry relative="1" as="geometry" />
        </mxCell>
        <mxCell id="oBfjSgjX7fKPl6Nq7a0--50" value="input &lt;br&gt;view_choice" style="shape=parallelogram;perimeter=parallelogramPerimeter;whiteSpace=wrap;html=1;fixedSize=1;" parent="1" vertex="1">
          <mxGeometry x="164.61000000000004" y="7529" width="166.81" height="40" as="geometry" />
        </mxCell>
        <mxCell id="oBfjSgjX7fKPl6Nq7a0--57" value="" style="edgeStyle=orthogonalEdgeStyle;rounded=0;orthogonalLoop=1;jettySize=auto;html=1;" parent="1" source="oBfjSgjX7fKPl6Nq7a0--54" target="oBfjSgjX7fKPl6Nq7a0--56" edge="1">
          <mxGeometry relative="1" as="geometry" />
        </mxCell>
        <mxCell id="oBfjSgjX7fKPl6Nq7a0--61" value="" style="edgeStyle=orthogonalEdgeStyle;rounded=0;orthogonalLoop=1;jettySize=auto;html=1;" parent="1" source="oBfjSgjX7fKPl6Nq7a0--54" target="oBfjSgjX7fKPl6Nq7a0--60" edge="1">
          <mxGeometry relative="1" as="geometry" />
        </mxCell>
        <mxCell id="oBfjSgjX7fKPl6Nq7a0--54" value="view_choice &lt;br&gt;== 1" style="rhombus;whiteSpace=wrap;html=1;" parent="1" vertex="1">
          <mxGeometry x="198.17999999999998" y="7609" width="99.67" height="90" as="geometry" />
        </mxCell>
        <mxCell id="oBfjSgjX7fKPl6Nq7a0--59" value="" style="edgeStyle=orthogonalEdgeStyle;rounded=0;orthogonalLoop=1;jettySize=auto;html=1;" parent="1" source="oBfjSgjX7fKPl6Nq7a0--56" target="oBfjSgjX7fKPl6Nq7a0--58" edge="1">
          <mxGeometry relative="1" as="geometry" />
        </mxCell>
        <mxCell id="oBfjSgjX7fKPl6Nq7a0--63" value="" style="edgeStyle=orthogonalEdgeStyle;rounded=0;orthogonalLoop=1;jettySize=auto;html=1;" parent="1" source="oBfjSgjX7fKPl6Nq7a0--56" target="oBfjSgjX7fKPl6Nq7a0--62" edge="1">
          <mxGeometry relative="1" as="geometry" />
        </mxCell>
        <mxCell id="oBfjSgjX7fKPl6Nq7a0--56" value="view_choice &lt;br&gt;== 2" style="rhombus;whiteSpace=wrap;html=1;" parent="1" vertex="1">
          <mxGeometry x="198.17999999999998" y="7729" width="99.67" height="90" as="geometry" />
        </mxCell>
        <mxCell id="oBfjSgjX7fKPl6Nq7a0--65" value="" style="edgeStyle=orthogonalEdgeStyle;rounded=0;orthogonalLoop=1;jettySize=auto;html=1;" parent="1" source="oBfjSgjX7fKPl6Nq7a0--58" target="oBfjSgjX7fKPl6Nq7a0--64" edge="1">
          <mxGeometry relative="1" as="geometry" />
        </mxCell>
        <mxCell id="oBfjSgjX7fKPl6Nq7a0--67" value="" style="edgeStyle=orthogonalEdgeStyle;rounded=0;orthogonalLoop=1;jettySize=auto;html=1;" parent="1" source="oBfjSgjX7fKPl6Nq7a0--58" target="oBfjSgjX7fKPl6Nq7a0--66" edge="1">
          <mxGeometry relative="1" as="geometry" />
        </mxCell>
        <mxCell id="oBfjSgjX7fKPl6Nq7a0--58" value="view_choice &lt;br&gt;== 3" style="rhombus;whiteSpace=wrap;html=1;" parent="1" vertex="1">
          <mxGeometry x="198.61999999999998" y="7849" width="99.67" height="90" as="geometry" />
        </mxCell>
        <mxCell id="oBfjSgjX7fKPl6Nq7a0--69" value="" style="edgeStyle=orthogonalEdgeStyle;rounded=0;orthogonalLoop=1;jettySize=auto;html=1;" parent="1" source="oBfjSgjX7fKPl6Nq7a0--60" target="oBfjSgjX7fKPl6Nq7a0--68" edge="1">
          <mxGeometry relative="1" as="geometry" />
        </mxCell>
        <mxCell id="oBfjSgjX7fKPl6Nq7a0--60" value="Retrive product data that only have active status" style="whiteSpace=wrap;html=1;" parent="1" vertex="1">
          <mxGeometry x="339.665" y="7624" width="120" height="60" as="geometry" />
        </mxCell>
        <mxCell id="oBfjSgjX7fKPl6Nq7a0--71" value="" style="edgeStyle=orthogonalEdgeStyle;rounded=0;orthogonalLoop=1;jettySize=auto;html=1;" parent="1" source="oBfjSgjX7fKPl6Nq7a0--62" edge="1">
          <mxGeometry relative="1" as="geometry">
            <mxPoint x="532.9449999999998" y="7774" as="targetPoint" />
          </mxGeometry>
        </mxCell>
        <mxCell id="oBfjSgjX7fKPl6Nq7a0--62" value="Retrive product data that only have discontinued status" style="whiteSpace=wrap;html=1;" parent="1" vertex="1">
          <mxGeometry x="339.665" y="7744" width="120" height="60" as="geometry" />
        </mxCell>
        <mxCell id="oBfjSgjX7fKPl6Nq7a0--64" value="retrieve all product data&amp;nbsp;" style="whiteSpace=wrap;html=1;" parent="1" vertex="1">
          <mxGeometry x="339.665" y="7864" width="120" height="60" as="geometry" />
        </mxCell>
        <mxCell id="oBfjSgjX7fKPl6Nq7a0--66" value="Return" style="ellipse;whiteSpace=wrap;html=1;" parent="1" vertex="1">
          <mxGeometry x="193.61000000000004" y="7979" width="110" height="40" as="geometry" />
        </mxCell>
        <mxCell id="oBfjSgjX7fKPl6Nq7a0--68" value="Display&lt;br&gt;product detail &lt;br&gt;from the retrieval" style="shape=parallelogram;perimeter=parallelogramPerimeter;whiteSpace=wrap;html=1;fixedSize=1;" parent="1" vertex="1">
          <mxGeometry x="519.4249999999998" y="7744" width="120" height="60" as="geometry" />
        </mxCell>
        <mxCell id="oBfjSgjX7fKPl6Nq7a0--72" value="" style="endArrow=classic;html=1;rounded=0;entryX=0.5;entryY=0;entryDx=0;entryDy=0;exitX=1.004;exitY=0.384;exitDx=0;exitDy=0;exitPerimeter=0;" parent="1" source="1OD_2GAFe2Vb38w-pji7-153" target="1OD_2GAFe2Vb38w-pji7-197" edge="1">
          <mxGeometry width="50" height="50" relative="1" as="geometry">
            <mxPoint x="436" y="5139" as="sourcePoint" />
            <mxPoint x="546" y="5349" as="targetPoint" />
            <Array as="points">
              <mxPoint x="576" y="5139" />
            </Array>
          </mxGeometry>
        </mxCell>
        <mxCell id="oBfjSgjX7fKPl6Nq7a0--74" value="" style="endArrow=classic;html=1;rounded=0;exitX=1;exitY=0.5;exitDx=0;exitDy=0;entryX=0.5;entryY=1;entryDx=0;entryDy=0;" parent="1" source="1OD_2GAFe2Vb38w-pji7-157" target="1OD_2GAFe2Vb38w-pji7-197" edge="1">
          <mxGeometry width="50" height="50" relative="1" as="geometry">
            <mxPoint x="675.8382000000001" y="5395.280000000001" as="sourcePoint" />
            <mxPoint x="546" y="5349" as="targetPoint" />
            <Array as="points">
              <mxPoint x="576" y="5394" />
            </Array>
          </mxGeometry>
        </mxCell>
        <mxCell id="oBfjSgjX7fKPl6Nq7a0--75" value="" style="endArrow=classic;html=1;rounded=0;exitX=1;exitY=0.5;exitDx=0;exitDy=0;entryX=0.5;entryY=1;entryDx=0;entryDy=0;" parent="1" source="oBfjSgjX7fKPl6Nq7a0--64" target="oBfjSgjX7fKPl6Nq7a0--68" edge="1">
          <mxGeometry width="50" height="50" relative="1" as="geometry">
            <mxPoint x="542.7249999999999" y="7969" as="sourcePoint" />
            <mxPoint x="577.7799999999999" y="7804" as="targetPoint" />
            <Array as="points">
              <mxPoint x="579.7199999999999" y="7894" />
            </Array>
          </mxGeometry>
        </mxCell>
        <mxCell id="oBfjSgjX7fKPl6Nq7a0--76" value="yes" style="text;html=1;align=center;verticalAlign=middle;whiteSpace=wrap;rounded=0;" parent="1" vertex="1">
          <mxGeometry x="282.36000000000007" y="7624" width="60" height="30" as="geometry" />
        </mxCell>
        <mxCell id="oBfjSgjX7fKPl6Nq7a0--78" value="yes" style="text;html=1;align=center;verticalAlign=middle;whiteSpace=wrap;rounded=0;" parent="1" vertex="1">
          <mxGeometry x="283.5700000000001" y="7744" width="60" height="30" as="geometry" />
        </mxCell>
        <mxCell id="oBfjSgjX7fKPl6Nq7a0--79" value="yes" style="text;html=1;align=center;verticalAlign=middle;whiteSpace=wrap;rounded=0;" parent="1" vertex="1">
          <mxGeometry x="282.7200000000001" y="7864" width="60" height="30" as="geometry" />
        </mxCell>
        <mxCell id="oBfjSgjX7fKPl6Nq7a0--80" value="no" style="text;html=1;align=center;verticalAlign=middle;whiteSpace=wrap;rounded=0;" parent="1" vertex="1">
          <mxGeometry x="246.72000000000006" y="7699" width="60" height="30" as="geometry" />
        </mxCell>
        <mxCell id="oBfjSgjX7fKPl6Nq7a0--81" value="no" style="text;html=1;align=center;verticalAlign=middle;whiteSpace=wrap;rounded=0;" parent="1" vertex="1">
          <mxGeometry x="245.66000000000005" y="7819" width="60" height="30" as="geometry" />
        </mxCell>
        <mxCell id="oBfjSgjX7fKPl6Nq7a0--82" value="no" style="text;html=1;align=center;verticalAlign=middle;whiteSpace=wrap;rounded=0;" parent="1" vertex="1">
          <mxGeometry x="237.19000000000003" y="7939" width="60" height="30" as="geometry" />
        </mxCell>
        <mxCell id="oBfjSgjX7fKPl6Nq7a0--85" value="" style="endArrow=classic;html=1;rounded=0;exitX=1;exitY=0.5;exitDx=0;exitDy=0;" parent="1" source="oBfjSgjX7fKPl6Nq7a0--68" edge="1">
          <mxGeometry width="50" height="50" relative="1" as="geometry">
            <mxPoint x="524.7199999999999" y="7609" as="sourcePoint" />
            <mxPoint x="265.00000000000006" y="7349" as="targetPoint" />
            <Array as="points">
              <mxPoint x="664.7199999999999" y="7774" />
              <mxPoint x="664.7199999999999" y="7349" />
            </Array>
          </mxGeometry>
        </mxCell>
        <mxCell id="lomSyerv8LN0R2Z5AA1Y-3" value="" style="edgeStyle=orthogonalEdgeStyle;rounded=0;orthogonalLoop=1;jettySize=auto;html=1;" parent="1" source="lomSyerv8LN0R2Z5AA1Y-1" target="nBvJbw0jXfMjI-mwf7v2-2" edge="1">
          <mxGeometry relative="1" as="geometry" />
        </mxCell>
        <mxCell id="lomSyerv8LN0R2Z5AA1Y-1" value="add_record()" style="shape=process;whiteSpace=wrap;html=1;backgroundOutline=1;" parent="1" vertex="1">
          <mxGeometry x="201.88000000000002" y="1310" width="120" height="30" as="geometry" />
        </mxCell>
        <mxCell id="lomSyerv8LN0R2Z5AA1Y-12" value="update_stock()" style="shape=process;whiteSpace=wrap;html=1;backgroundOutline=1;" parent="1" vertex="1">
          <mxGeometry x="190.30000000000004" y="3620" width="120" height="35" as="geometry" />
        </mxCell>
        <mxCell id="lomSyerv8LN0R2Z5AA1Y-14" value="" style="endArrow=classic;html=1;rounded=0;exitX=0.5;exitY=1;exitDx=0;exitDy=0;entryX=0.461;entryY=0.042;entryDx=0;entryDy=0;entryPerimeter=0;" parent="1" source="1OD_2GAFe2Vb38w-pji7-1" target="lomSyerv8LN0R2Z5AA1Y-12" edge="1">
          <mxGeometry width="50" height="50" relative="1" as="geometry">
            <mxPoint x="260" y="3650" as="sourcePoint" />
            <mxPoint x="310" y="3600" as="targetPoint" />
          </mxGeometry>
        </mxCell>
        <mxCell id="lomSyerv8LN0R2Z5AA1Y-19" value="" style="edgeStyle=orthogonalEdgeStyle;rounded=0;orthogonalLoop=1;jettySize=auto;html=1;" parent="1" source="lomSyerv8LN0R2Z5AA1Y-17" target="oBfjSgjX7fKPl6Nq7a0--4" edge="1">
          <mxGeometry relative="1" as="geometry" />
        </mxCell>
        <mxCell id="lomSyerv8LN0R2Z5AA1Y-17" value="remove_&lt;br&gt;discontinued()" style="shape=process;whiteSpace=wrap;html=1;backgroundOutline=1;" parent="1" vertex="1">
          <mxGeometry x="230.3" y="6030" width="120" height="40" as="geometry" />
        </mxCell>
        <mxCell id="lomSyerv8LN0R2Z5AA1Y-21" value="" style="edgeStyle=orthogonalEdgeStyle;rounded=0;orthogonalLoop=1;jettySize=auto;html=1;" parent="1" source="lomSyerv8LN0R2Z5AA1Y-20" target="oBfjSgjX7fKPl6Nq7a0--41" edge="1">
          <mxGeometry relative="1" as="geometry" />
        </mxCell>
        <mxCell id="lomSyerv8LN0R2Z5AA1Y-20" value="view_record()" style="shape=process;whiteSpace=wrap;html=1;backgroundOutline=1;" parent="1" vertex="1">
          <mxGeometry x="188.61000000000004" y="7289" width="120" height="36.25" as="geometry" />
        </mxCell>
        <mxCell id="lomSyerv8LN0R2Z5AA1Y-25" value="" style="edgeStyle=orthogonalEdgeStyle;rounded=0;orthogonalLoop=1;jettySize=auto;html=1;" parent="1" source="lomSyerv8LN0R2Z5AA1Y-23" target="IQKo63NXIHQgOwDerFXy-24" edge="1">
          <mxGeometry relative="1" as="geometry" />
        </mxCell>
        <mxCell id="lomSyerv8LN0R2Z5AA1Y-23" value="logout" style="rounded=0;whiteSpace=wrap;html=1;" parent="1" vertex="1">
          <mxGeometry x="344.62" y="894.5" width="120" height="35" as="geometry" />
        </mxCell>
        <mxCell id="lomSyerv8LN0R2Z5AA1Y-26" value="" style="endArrow=none;html=1;rounded=0;exitX=1;exitY=0.5;exitDx=0;exitDy=0;" parent="1" source="Z7cSm4-CHYU7oi6Hj0iT-22" edge="1">
          <mxGeometry width="50" height="50" relative="1" as="geometry">
            <mxPoint x="498.7" y="857" as="sourcePoint" />
            <mxPoint x="728.7" y="1127" as="targetPoint" />
          </mxGeometry>
        </mxCell>
        <mxCell id="lomSyerv8LN0R2Z5AA1Y-28" value="" style="endArrow=none;html=1;rounded=0;" parent="1" edge="1">
          <mxGeometry width="50" height="50" relative="1" as="geometry">
            <mxPoint x="728.7" y="387" as="sourcePoint" />
            <mxPoint x="728.7" y="1127" as="targetPoint" />
          </mxGeometry>
        </mxCell>
        <mxCell id="lomSyerv8LN0R2Z5AA1Y-30" value="" style="edgeStyle=orthogonalEdgeStyle;rounded=0;orthogonalLoop=1;jettySize=auto;html=1;" parent="1" target="lomSyerv8LN0R2Z5AA1Y-29" edge="1">
          <mxGeometry relative="1" as="geometry">
            <mxPoint x="218.7" y="167" as="sourcePoint" />
            <mxPoint x="218.7" y="197" as="targetPoint" />
          </mxGeometry>
        </mxCell>
        <mxCell id="lomSyerv8LN0R2Z5AA1Y-29" value="Inventory Management Menu" style="shape=process;whiteSpace=wrap;html=1;backgroundOutline=1;" parent="1" vertex="1">
          <mxGeometry x="136.02999999999997" y="127" width="165.3" height="40" as="geometry" />
        </mxCell>
      </root>
    </mxGraphModel>
  </diagram>
</mxfile>
